<svg width="320" height="320" viewBox="0 0 320 320" fill="none" xmlns="http://www.w3.org/2000/svg">
<path d="M146.111 133.421H39.7434V211.885H146.111V133.421Z" fill="#F5F9FF"/>
<path d="M146.111 133.421H39.7434V143.208H146.111V133.421Z" fill="#D0DBF7"/>
<path d="M48.2822 138.54C48.2822 139.777 47.2794 140.779 46.0429 140.779C44.8058 140.779 43.8035 139.776 43.8035 138.54C43.8035 137.303 44.8064 136.3 46.0429 136.3C47.2794 136.3 48.2822 137.303 48.2822 138.54Z" fill="#F2F2F2"/>
<path d="M55.8234 138.54C55.8234 139.777 54.8205 140.779 53.584 140.779C52.3475 140.779 51.3446 139.776 51.3446 138.54C51.3446 137.303 52.3475 136.3 53.584 136.3C54.8205 136.3 55.8234 137.303 55.8234 138.54Z" fill="#F2F2F2"/>
<path d="M63.3645 138.54C63.3645 139.777 62.3616 140.779 61.1251 140.779C59.888 140.779 58.8858 139.776 58.8858 138.54C58.8858 137.303 59.8887 136.3 61.1251 136.3C62.3623 136.3 63.3645 137.303 63.3645 138.54Z" fill="#F2F2F2"/>
<path d="M111.087 164.549L105.739 159.202L92.9274 172.013L80.1152 159.202L74.7674 164.549L87.5795 177.361L74.7674 190.172L80.1152 195.519L92.9274 182.708L105.739 195.519L111.087 190.172L98.2746 177.361L111.087 164.549Z" fill="#E3EBFC"/>
<path d="M276.686 83.9328H170.319V162.397H276.686V83.9328Z" fill="#F5F9FF"/>
<path d="M276.686 83.9328H170.319V93.7197H276.686V83.9328Z" fill="#D0DBF7"/>
<path d="M178.858 89.0515C178.858 90.2886 177.855 91.2909 176.618 91.2909C175.381 91.2909 174.379 90.288 174.379 89.0515C174.379 87.815 175.382 86.8122 176.618 86.8122C177.855 86.8122 178.858 87.8144 178.858 89.0515Z" fill="#F2F2F2"/>
<path d="M186.399 89.0515C186.399 90.2886 185.396 91.2909 184.159 91.2909C182.922 91.2909 181.92 90.288 181.92 89.0515C181.92 87.815 182.923 86.8122 184.159 86.8122C185.396 86.8122 186.399 87.8144 186.399 89.0515Z" fill="#F2F2F2"/>
<path d="M193.94 89.0515C193.94 90.2886 192.937 91.2909 191.701 91.2909C190.463 91.2909 189.461 90.288 189.461 89.0515C189.461 87.815 190.464 86.8122 191.701 86.8122C192.937 86.8122 193.94 87.8144 193.94 89.0515Z" fill="#F2F2F2"/>
<path d="M241.661 115.061L236.314 109.713L223.502 122.525L210.69 109.713L205.343 115.061L218.154 127.872L205.343 140.684L210.69 146.031L223.502 133.22L236.314 146.031L241.661 140.684L228.85 127.872L241.661 115.061Z" fill="#E3EBFC"/>
<path d="M159.361 275.352C231.172 275.352 289.386 270.322 289.386 264.117C289.386 257.912 231.172 252.882 159.361 252.882C87.5495 252.882 29.3351 257.912 29.3351 264.117C29.3351 270.322 87.5495 275.352 159.361 275.352Z" fill="#EDF0FC"/>
<path d="M127.649 85.2358C126.659 83.1603 126.712 81.1494 127.806 79.2032L128.338 78.2758C128.858 77.4285 129.19 76.7769 129.335 76.3206C129.479 75.8649 129.441 75.4022 129.217 74.9344C128.654 73.7542 127.385 73.6352 125.412 74.5766C124.497 75.0131 123.608 75.5872 122.748 76.2969C121.889 77.0067 121.128 77.7945 120.466 78.6592L118.224 73.9597C119.688 72.2125 121.58 70.7853 123.9 69.6787C126.402 68.4845 128.636 68.0621 130.6 68.4115C132.565 68.7609 133.989 69.8605 134.872 71.712C135.368 72.7494 135.534 73.7005 135.372 74.5645C135.21 75.4291 134.758 76.5248 134.018 77.8515C133.528 78.7603 133.179 79.4445 132.974 79.9046C132.769 80.3648 132.667 80.8185 132.669 81.2672C132.671 81.7165 132.798 82.2054 133.05 82.7334L133.327 83.3139L127.956 85.8765L127.649 85.2358ZM131.763 92.2464C130.966 91.9648 130.378 91.4265 129.999 90.6336C129.612 89.8201 129.56 89.0201 129.848 88.2336C130.134 87.4477 130.685 86.8601 131.498 86.4723C132.292 86.0934 133.097 86.0403 133.914 86.3123C134.73 86.5856 135.328 87.1174 135.706 87.911C136.085 88.7046 136.123 89.5046 135.821 90.3104C135.518 91.1161 134.97 91.7088 134.177 92.087C133.364 92.4749 132.558 92.5286 131.763 92.2464Z" fill="#E2E6FF"/>
<path d="M153.727 67.3094C155.065 64.1158 157.375 62.1581 160.659 61.4349L162.234 61.1014C163.706 60.8358 164.772 60.5549 165.429 60.2598C166.085 59.9648 166.566 59.4573 166.868 58.7373C167.628 56.9216 166.489 55.3773 163.453 54.1049C162.044 53.5149 160.509 53.0931 158.849 52.8397C157.19 52.5856 155.542 52.5222 153.908 52.6457L156.937 45.4144C160.367 45.3056 163.868 45.9993 167.436 47.4944C171.287 49.1072 174.002 51.1923 175.58 53.7478C177.159 56.3046 177.352 59.0067 176.159 61.8553C175.49 63.4521 174.589 64.5926 173.457 65.2774C172.323 65.9616 170.639 66.5536 168.407 67.0534C166.894 67.4137 165.777 67.7094 165.054 67.9405C164.332 68.1721 163.72 68.5126 163.218 68.9651C162.715 69.4176 162.294 70.0505 161.953 70.8633L161.58 71.7561L153.315 68.2944L153.727 67.3094ZM149.98 78.9593C149.497 77.7824 149.512 76.583 150.024 75.3619C150.548 74.1101 151.395 73.2505 152.567 72.784C153.736 72.3168 154.948 72.3462 156.2 72.8704C157.421 73.3817 158.289 74.2329 158.803 75.4227C159.315 76.6131 159.316 77.8189 158.805 79.0393C158.294 80.2598 157.433 81.1053 156.225 81.5744C155.017 82.0429 153.802 82.0217 152.581 81.5104C151.329 80.9869 150.461 80.1357 149.98 78.9593Z" fill="#E2E6FF"/>
<path d="M287.813 182.483V178.809H285.37V182.483H281.696V184.926H285.37V188.6H287.813V184.926H291.488V182.483H287.813Z" fill="#CAD2F9"/>
<path d="M264.741 64.8704V59.2665H261.016V64.8704H255.412V68.5958H261.016V74.1997H264.741V68.5958H270.346V64.8704H264.741Z" fill="#CAD2F9"/>
<path d="M254.586 173.337V170.661H252.807V173.337H250.131V175.116H252.807V177.792H254.586V175.116H257.262V173.337H254.586Z" fill="#CAD2F9"/>
<path d="M101.993 80.2617V77.5859H100.214V80.2617H97.5379V82.0409H100.214V84.7168H101.993V82.0409H104.669V80.2617H101.993Z" fill="#CAD2F9"/>
<path d="M81.3651 62.5651V58.8902H78.9223V62.5651H75.248V65.0073H78.9223V68.6816H81.3651V65.0073H85.04V62.5651H81.3651Z" fill="#CAD2F9"/>
<path d="M202.024 70.0666C202.024 70.8384 201.399 71.4637 200.627 71.4637C199.855 71.4637 199.23 70.8378 199.23 70.0666C199.23 69.2947 199.856 68.6694 200.627 68.6694C201.399 68.6694 202.024 69.2947 202.024 70.0666Z" fill="#EEF1FF"/>
<path d="M207.747 46.0442C207.747 46.816 207.121 47.4413 206.349 47.4413C205.578 47.4413 204.952 46.8154 204.952 46.0442C204.952 45.2723 205.578 44.647 206.349 44.647C207.121 44.647 207.747 45.273 207.747 46.0442Z" fill="#EEF1FF"/>
<path d="M235.043 60.1753C236.504 60.1753 237.689 58.9908 237.689 57.5296C237.689 56.0684 236.504 54.8838 235.043 54.8838C233.582 54.8838 232.397 56.0684 232.397 57.5296C232.397 58.9908 233.582 60.1753 235.043 60.1753Z" fill="#EEF1FF"/>
<path d="M290.783 156.917C290.783 157.689 290.158 158.314 289.386 158.314C288.614 158.314 287.989 157.688 287.989 156.917C287.989 156.145 288.614 155.52 289.386 155.52C290.158 155.519 290.783 156.145 290.783 156.917Z" fill="#EEF1FF"/>
<path d="M289.386 200.542C289.386 201.314 288.76 201.939 287.989 201.939C287.217 201.939 286.592 201.313 286.592 200.542C286.592 199.77 287.217 199.145 287.989 199.145C288.761 199.145 289.386 199.77 289.386 200.542Z" fill="#EEF1FF"/>
<path d="M76.6451 124.241C76.6451 125.013 76.0192 125.638 75.248 125.638C74.4762 125.638 73.8509 125.013 73.8509 124.241C73.8509 123.469 74.4762 122.844 75.248 122.844C76.0199 122.844 76.6451 123.469 76.6451 124.241Z" fill="#EEF1FF"/>
<path d="M52.3264 68.9376C53.7876 68.9376 54.9722 67.753 54.9722 66.2918C54.9722 64.8306 53.7876 63.6461 52.3264 63.6461C50.8652 63.6461 49.6806 64.8306 49.6806 66.2918C49.6806 67.753 50.8652 68.9376 52.3264 68.9376Z" fill="#EEF1FF"/>
<path d="M104.503 51.3645C104.503 52.1363 103.878 52.7616 103.106 52.7616C102.334 52.7616 101.709 52.1363 101.709 51.3645C101.709 50.5926 102.335 49.9673 103.106 49.9673C103.878 49.9673 104.503 50.5926 104.503 51.3645Z" fill="#EEF1FF"/>
<path d="M30.7322 135.158C30.7322 135.93 30.1069 136.555 29.335 136.555C28.5632 136.555 27.9379 135.93 27.9379 135.158C27.9379 134.387 28.5638 133.761 29.335 133.761C30.1062 133.761 30.7322 134.387 30.7322 135.158Z" fill="#EEF1FF"/>
<path d="M30.7322 209.619C30.7322 210.39 30.1069 211.016 29.335 211.016C28.5632 211.016 27.9379 210.39 27.9379 209.619C27.9379 208.847 28.5638 208.221 29.335 208.221C30.1062 208.221 30.7322 208.847 30.7322 209.619Z" fill="#EEF1FF"/>
<path d="M234.453 251.694C234.453 251.694 211.299 205.404 274.101 174.68C274.101 174.68 278.915 240.643 234.453 251.694Z" fill="#6E7FDD"/>
<path d="M237.12 245.796C237.104 239.179 238.487 232.605 240.392 226.262C240.637 225.469 240.855 224.666 241.123 223.881L241.972 221.54L242.826 219.199L243.789 216.903C245.03 213.818 246.589 210.882 248.06 207.903L250.564 203.598C251.371 202.146 252.287 200.762 253.217 199.388C254.157 198.02 255.047 196.62 256.026 195.283C257.024 193.959 258.038 192.648 259.059 191.343L260.587 189.386L262.229 187.522L265.537 183.825C266.078 183.201 266.682 182.633 267.273 182.056L269.053 180.331C270.242 179.185 271.443 178.054 272.65 176.935C271.613 178.223 270.57 179.498 269.514 180.758L267.927 182.643C267.397 183.269 266.856 183.885 266.378 184.555L263.384 188.458L261.876 190.394L260.472 192.408C259.542 193.754 258.607 195.093 257.655 196.42C256.734 197.768 255.903 199.176 255.023 200.55C253.196 203.259 251.695 206.161 250.056 208.979C246.995 214.736 244.296 220.682 242.065 226.817C239.879 232.962 238.042 239.267 237.12 245.796Z" fill="#B3C9F9"/>
<path opacity="0.1" d="M271.751 174.224C270.871 190.14 265.417 232.451 232.482 242.033C233.67 246.836 235.112 249.719 235.112 249.719C279.574 238.668 274.76 172.705 274.76 172.705C273.733 173.206 272.732 173.713 271.751 174.224Z" fill="#0046A0"/>
<path d="M228.787 266.593C228.787 266.593 232.082 252.498 245.863 235.416C260.963 216.702 280.652 209.969 288.826 218.964C296.759 227.694 290.019 239.757 269.583 245.92C249.147 252.084 237.593 254.739 228.787 266.593Z" fill="#FFCF74"/>
<path d="M282.355 223.864C277.679 225.714 273.149 227.859 268.701 230.131C264.266 232.429 259.937 234.918 255.805 237.699C251.661 240.456 247.716 243.508 244.056 246.881C240.41 250.268 237.069 253.992 234.181 258.115C235.346 255.885 236.721 253.761 238.21 251.715C239.747 249.708 241.376 247.759 243.167 245.965C246.713 242.339 250.7 239.165 254.897 236.339C257.012 234.949 259.167 233.622 261.376 232.391C263.597 231.184 265.843 230.023 268.145 228.986C272.733 226.886 277.477 225.114 282.355 223.864Z" fill="#F9AB43"/>
<path opacity="0.1" d="M288.826 218.964C288.383 218.476 287.9 218.044 287.391 217.648C280.762 233.885 261.393 245.645 238.512 245.668C230.849 257.789 228.787 266.593 228.787 266.593C237.593 254.739 249.147 252.084 269.583 245.92C290.019 239.756 296.76 227.694 288.826 218.964Z" fill="#0046A0"/>
<path d="M110.182 258.676C110.182 258.676 62.6176 279.087 35.6154 214.596C35.6154 214.596 101.748 213.645 110.182 258.676Z" fill="#6E7FDD"/>
<path d="M106.383 256.442C99.7767 256.071 93.2947 254.307 87.0739 252.035C86.297 251.744 85.5079 251.48 84.7392 251.167L82.4525 250.182L80.1658 249.192L77.9296 248.096C74.9216 246.676 72.0819 244.95 69.1949 243.306L65.0432 240.556C63.641 239.665 62.313 238.669 60.9952 237.661C59.6851 236.643 58.3386 235.672 57.0611 234.617C55.7984 233.543 54.5485 232.454 53.3056 231.359L51.4413 229.72L49.6768 227.971L46.1792 224.454C45.5885 223.876 45.0567 223.242 44.5146 222.617L42.8967 220.739C41.8221 219.485 40.7635 218.22 39.7165 216.949C40.9415 218.06 42.1536 219.176 43.3498 220.303L45.1386 221.997C45.7325 222.563 46.3155 223.139 46.9568 223.656L50.6784 226.872L52.5235 228.49L54.4512 230.01C55.7402 231.017 57.0227 232.029 58.2925 233.057C59.5847 234.055 60.9421 234.967 62.2618 235.926C64.8589 237.907 67.6679 239.576 70.3853 241.377C75.9539 244.769 81.7325 247.81 87.7261 250.396C93.7325 252.938 99.92 255.14 106.383 256.442Z" fill="#B3C9F9"/>
<path opacity="0.1" d="M36.9568 217.689C52.7949 219.497 94.7149 227.414 102.356 260.853C107.22 259.948 110.182 258.677 110.182 258.677C101.748 213.645 35.616 214.597 35.616 214.597C36.057 215.651 36.5043 216.68 36.9568 217.689Z" fill="#0046A0"/>
<path d="M90.6208 241.301C90.6208 241.301 90.3891 226.827 80.5421 207.212C69.753 185.722 51.9386 174.968 42.0435 182.026C32.4391 188.876 36.4698 202.093 55.1347 212.449C73.8003 222.805 84.528 227.85 90.6208 241.301Z" fill="#FFCF74"/>
<path d="M47.3286 188.188C51.5059 190.986 55.4778 194.044 59.3434 197.206C63.1898 200.392 66.8934 203.743 70.3411 207.336C73.8074 210.909 77.0157 214.728 79.8765 218.799C82.7219 222.882 85.1981 227.23 87.1462 231.872C86.4806 229.445 85.5872 227.078 84.5658 224.763C83.4893 222.477 82.3104 220.226 80.9408 218.093C78.2438 213.799 75.0208 209.852 71.5181 206.2C69.7453 204.394 67.92 202.64 66.023 200.968C64.1082 199.318 62.16 197.708 60.1299 196.206C56.0909 193.181 51.8304 190.443 47.3286 188.188Z" fill="#F9AB43"/>
<path opacity="0.1" d="M42.0435 182.026C42.5798 181.644 43.1437 181.324 43.7242 181.044C46.7603 198.317 63.1968 213.916 85.5526 218.79C90.4717 232.259 90.6208 241.3 90.6208 241.3C84.528 227.85 73.7997 222.804 55.1347 212.449C36.4698 202.093 32.4397 188.877 42.0435 182.026Z" fill="#0046A0"/>
<path d="M222.367 255.313C221.85 258.737 218.409 261.539 214.721 261.539H105.605C101.917 261.539 98.4391 258.742 97.8752 255.325L79.8087 145.759C79.2448 142.341 81.8016 139.544 85.4893 139.544H233.16C236.848 139.544 239.442 142.346 238.925 145.77L222.367 255.313Z" fill="#F9AB43"/>
<path d="M194.987 102.933H103.106V232.371H215.465V123.711L194.987 102.933Z" fill="#C2CEF2"/>
<path d="M194.987 102.933L215.615 123.561H194.987V102.933Z" fill="#7997F2"/>
<path d="M190.474 143.864L181.312 134.703L159.361 156.652L137.409 134.703L128.247 143.864L150.198 165.814L128.247 187.764L137.409 196.927L159.361 174.977L181.312 196.927L190.474 187.764L168.523 165.814L190.474 143.864Z" fill="#AFC2E8"/>
<path d="M170.023 177.139C167.126 177.142 164.057 174.88 163.203 172.111L158.994 158.46C158.14 155.691 155.071 153.426 152.174 153.426H77.3261C74.4288 153.426 72.473 155.76 72.9792 158.612L91.2493 261.565C91.7555 264.417 94.5402 266.751 97.4375 266.751H227.094C229.991 266.751 232.732 264.41 233.186 261.549L245.759 182.231C246.212 179.37 244.213 177.031 241.316 177.035L170.023 177.139Z" fill="#FFCF74"/>
<path d="M151.788 225.387C151.788 221.379 153.379 218.256 156.561 216.016L158.093 214.956C159.547 214.014 160.559 213.238 161.129 212.629C161.698 212.02 161.984 211.264 161.984 210.36C161.984 208.082 160.077 206.942 156.267 206.942C154.499 206.942 152.673 207.178 150.787 207.65C148.902 208.121 147.114 208.79 145.425 209.653V200.579C149.038 198.929 153.085 198.104 157.564 198.104C162.396 198.104 166.227 199.115 169.054 201.139C171.883 203.162 173.297 205.961 173.297 209.535C173.297 211.539 172.845 213.159 171.942 214.397C171.037 215.635 169.505 217.019 167.345 218.551C165.892 219.612 164.83 220.428 164.163 220.997C163.495 221.567 162.994 222.205 162.66 222.912C162.326 223.62 162.159 224.484 162.159 225.504V226.625H151.788V225.387H151.788ZM152.997 239.499C151.955 238.459 151.435 237.172 151.435 235.64C151.435 234.069 151.955 232.772 152.997 231.75C154.036 230.729 155.344 230.218 156.915 230.218C158.447 230.218 159.754 230.739 160.835 231.779C161.914 232.821 162.455 234.107 162.455 235.639C162.455 237.171 161.914 238.458 160.835 239.499C159.754 240.54 158.447 241.06 156.915 241.06C155.344 241.06 154.036 240.54 152.997 239.499Z" fill="white"/>
<path opacity="0.1" d="M241.315 177.034L233.207 177.046C233.386 178.913 233.481 180.797 233.481 182.698C233.481 225.216 187.974 259.684 131.84 259.684C116.803 259.684 102.53 257.208 89.6884 252.769L91.2493 261.564C91.7556 264.417 94.5402 266.751 97.4375 266.751H227.094C229.991 266.751 232.732 264.41 233.186 261.548L245.759 182.23C246.212 179.369 244.213 177.031 241.315 177.034Z" fill="#0046A0"/>
<g opacity="0.3">
<path d="M85.5591 168.705C85.9443 171.29 86.3296 173.874 86.7155 176.458C87.6327 182.608 88.5498 188.757 89.4669 194.907C90.5837 202.396 91.7005 209.885 92.8173 217.373C93.776 223.803 94.7347 230.232 95.6935 236.661C96.0122 238.797 96.3303 240.933 96.649 243.069C96.7987 244.072 96.8839 245.113 97.1015 246.104C97.1111 246.147 97.1143 246.191 97.1207 246.234C97.2519 247.114 98.3629 247.599 99.1456 247.383C100.088 247.124 100.427 246.241 100.295 245.358C99.9098 242.774 99.5245 240.189 99.1386 237.605C98.2215 231.455 97.3043 225.306 96.3872 219.156C95.2704 211.668 94.1536 204.179 93.0368 196.69C92.0781 190.26 91.1194 183.832 90.1607 177.402C89.8419 175.266 89.5239 173.13 89.2051 170.994C89.0554 169.991 88.9703 168.95 88.7527 167.959C88.7431 167.917 88.7399 167.873 88.7335 167.83C88.6023 166.95 87.4912 166.465 86.7085 166.68C85.7664 166.939 85.4272 167.823 85.5591 168.705Z" fill="white"/>
</g>
<path d="M266.246 111.706C256.129 111.706 247.927 119.907 247.927 130.024C247.927 134.546 249.569 138.682 252.284 141.877L251.518 151.309L260.271 147.341C262.144 147.988 264.153 148.344 266.246 148.344C276.363 148.344 284.564 140.142 284.564 130.025C284.564 119.908 276.364 111.706 266.246 111.706Z" fill="#EB725F"/>
<path d="M264.978 139.402C264.643 139.067 264.476 138.653 264.476 138.161C264.476 137.668 264.643 137.254 264.978 136.919C265.313 136.584 265.727 136.416 266.22 136.416C266.712 136.416 267.131 136.584 267.476 136.919C267.821 137.254 267.994 137.668 267.994 138.161C267.994 138.653 267.82 139.068 267.476 139.402C267.131 139.737 266.712 139.905 266.22 139.905C265.727 139.905 265.313 139.737 264.978 139.402ZM263.944 118.798H268.555L267.698 133.549H264.8L263.944 118.798Z" fill="#F2F2F2"/>
<path opacity="0.1" d="M256.211 139.731C254.222 139.731 252.282 139.556 250.41 139.227C250.957 140.166 251.584 141.053 252.284 141.877L251.519 151.309L260.271 147.341C262.145 147.988 264.154 148.344 266.246 148.344C276.364 148.344 284.565 140.142 284.565 130.025C284.565 127.573 284.079 125.235 283.206 123.098C279.537 132.746 268.841 139.731 256.211 139.731Z" fill="#0046A0"/>
<path d="M78.5594 106.75V89.3798C78.5594 87.2941 76.8525 85.5872 74.7667 85.5872H43.1059C41.0202 85.5872 39.3133 87.2941 39.3133 89.3798V111.269C39.3133 113.355 41.0202 115.062 43.1059 115.062H71.4522H74.7661H87.6947L78.5594 106.75Z" fill="#F9AB43"/>
<path d="M53.6435 97.8848C53.6435 99.5514 52.6752 100.902 51.4816 100.902C50.2874 100.902 49.3191 99.5507 49.3191 97.8848C49.3191 96.2182 50.2874 94.8678 51.4816 94.8678C52.6752 94.8678 53.6435 96.2189 53.6435 97.8848Z" fill="white"/>
<path d="M68.0179 97.8848C68.0179 99.5514 67.0496 100.902 65.8554 100.902C64.6611 100.902 63.6935 99.5507 63.6935 97.8848C63.6935 96.2182 64.6618 94.8678 65.8554 94.8678C67.0503 94.8678 68.0179 96.2189 68.0179 97.8848Z" fill="white"/>
<path d="M53.7133 106.321C54.4544 105.509 55.4861 104.871 56.512 104.501C59.1091 103.565 61.6192 104.543 63.5975 106.321C64.1255 106.796 64.9107 106.016 64.3795 105.539C62.1869 103.568 59.3421 102.41 56.4256 103.363C55.1463 103.781 53.8471 104.536 52.9312 105.539C52.4519 106.064 53.232 106.849 53.7133 106.321Z" fill="white"/>
<path opacity="0.1" d="M78.5594 106.75V89.3798C78.5594 87.2941 76.8525 85.5872 74.7667 85.5872H71.5213C72.0845 87.6505 72.3872 89.7894 72.3872 91.9846C72.3872 101.212 67.145 109.474 58.8749 115.062H71.4528H74.7667H87.6954L78.5594 106.75Z" fill="#0046A0"/>
<path d="M187.965 204.038C177.812 214.191 177.812 230.653 187.965 240.806C198.118 250.959 214.58 250.959 224.733 240.806C234.886 230.653 234.886 214.191 224.733 204.038C214.58 193.885 198.118 193.885 187.965 204.038ZM221.753 237.827C213.246 246.333 199.453 246.333 190.946 237.827C182.439 229.319 182.439 215.526 190.946 207.019C199.453 198.512 213.246 198.512 221.753 207.019C230.26 215.526 230.26 229.319 221.753 237.827Z" fill="#EB725F"/>
<path opacity="0.3" d="M206.349 244.206C218.38 244.206 228.133 234.453 228.133 222.422C228.133 210.392 218.38 200.639 206.349 200.639C194.319 200.639 184.566 210.392 184.566 222.422C184.566 234.453 194.319 244.206 206.349 244.206Z" fill="white"/>
<path d="M224.032 236.849L220.773 240.109L250.251 269.587L253.51 266.328L224.032 236.849Z" fill="#6E7FDD"/>
<path d="M224.031 236.852L220.772 240.111L231.629 250.968L234.888 247.709L224.031 236.852Z" fill="#EB725F"/>
<path d="M193.667 213.465C194.493 211.081 196.305 209.153 198.483 207.814C200.676 206.484 203.279 205.771 205.884 205.772C208.488 205.765 211.093 206.477 213.286 207.807C215.466 209.145 217.277 211.076 218.1 213.465C215.718 212.66 213.704 212.024 211.702 211.635C209.718 211.232 207.802 211.048 205.883 211.038C203.964 211.041 202.046 211.224 200.061 211.628C198.059 212.016 196.044 212.656 193.667 213.465Z" fill="white"/>
</svg>
