<svg width="1385" height="928" viewBox="0 0 1385 928" fill="none" xmlns="http://www.w3.org/2000/svg">
<g clip-path="url(#clip0_2_315)">
<mask id="mask0_2_315" style="mask-type:luminance" maskUnits="userSpaceOnUse" x="-115" y="0" width="1500" height="1000">
<path d="M-115 1000H1385V0H-115V1000Z" fill="white"/>
</mask>
<g mask="url(#mask0_2_315)">
<g style="mix-blend-mode:color-dodge">
<path d="M1611.8 141.5C1563.5 82.9 1480.4 62.7 1404.8 71.1C1329.3 79.4 1258.9 112.1 1189.7 143.4C1120.5 174.8 1049.1 205.8 973.3 210.6C892.6 215.7 812.1 190.8 731.6 197.8C634.9 206.2 548.9 259.3 464.4 306.9C379.9 354.6 286.5 399.2 190.1 388.4C120 380.6 56.8999 344.1 -4.00012 308.5" stroke="url(#paint0_linear_2_315)" stroke-width="2" stroke-miterlimit="10"/>
<path d="M1536.6 266.8C1545.6 264.867 1554.6 262.933 1563.6 261C1522.2 212.3 1454.7 192.4 1390.9 193.7C1327 195.1 1265.2 215 1204.2 234C1143.2 253 1080.7 271.5 1016.8 269.9C864.7 266.1 732.4 150.2 580.3 146.4C460.5 143.4 341.1 210.7 225.2 180.3" stroke="url(#paint1_linear_2_315)" stroke-width="2" stroke-miterlimit="10"/>
<path d="M1581.3 502.3C1544.4 459.5 1484.2 442.9 1427.7 444.9C1371.1 447 1316.6 465.1 1262.4 481.3C1208.2 497.5 1152.1 512 1095.8 506.7C1030.6 500.5 971.2 468.3 908.7 448.8C831.8 424.9 750.4 420.3 670.1 413.9C589.8 407.4 508.2 398.6 434.2 366.9C360.1 335.2 293.5 277.2 269.9 200.2" stroke="url(#paint2_linear_2_315)" stroke-width="2" stroke-miterlimit="10"/>
<path d="M1581.6 802.8C1511.6 703.4 1387.4 644.8 1266.2 653.9C1182.2 660.2 1101.3 696.4 1017.2 692.2C897.4 686.1 798.2 600.7 712.2 517.1C626.2 433.4 535.1 342.7 417.1 321.1C335.6 306.1 251.4 326.6 169.2 316.9C148.6 314.4 127.4 309.7 111.6 296.4C95.8 283.1 87.3 259.1 97.4 241" stroke="url(#paint3_linear_2_315)" stroke-width="2" stroke-miterlimit="10"/>
<path d="M1702.4 318.3C1564 277.8 1412.1 243.7 1278.8 298.9C1182.5 338.7 1107.9 421.2 1010.1 457.4C875.7 507.1 720 461.6 585.9 512.2C526.3 534.7 475.3 574.8 422.9 611C370.5 647.2 313.3 680.8 250 687.5C186.6 694.2 115.8 667 88.9999 609.2" stroke="url(#paint4_linear_2_315)" stroke-width="2" stroke-miterlimit="10"/>
<path d="M1712.2 736.4C1652.9 643.3 1545.1 588.6 1435.7 573.5C1326.3 558.4 1215 578.7 1108.9 609.3C1002.7 639.8 899.6 680.5 792.6 707.7C724.9 724.8 653.6 736.5 585.6 720.9C517.6 705.3 458.7 663.9 401.9 623.4C334.833 575.667 267.8 527.967 200.8 480.3" stroke="url(#paint5_linear_2_315)" stroke-width="2" stroke-miterlimit="10"/>
<path d="M1486.7 862.3C1498.6 861.7 1506.3 847.9 1504.5 836.2C1502.6 824.5 1494.1 814.9 1485.3 807C1441.8 768.3 1382.3 752.4 1324.2 747.9C1266.1 743.4 1207.8 749.1 1149.6 747.5C988.8 743.1 828.1 683.2 670.3 714.3C598.2 728.4 530 761.3 456.8 766.8C322.4 777 187.8 681 153.5 550.7" stroke="url(#paint6_linear_2_315)" stroke-width="2" stroke-miterlimit="10"/>
<path d="M1603.4 334.7C1540.3 287 1449.8 298.9 1377.1 330C1304.4 361.1 1238.6 408.9 1162.3 429.9C1066.4 456.3 961.1 438.1 868.2 473.3C785.6 504.6 723.2 574 644 612.9C564.3 652 472.5 657.8 383.8 655.6C295 653.3 205.9 643.6 117.8 654.3" stroke="url(#paint7_linear_2_315)" stroke-width="2" stroke-miterlimit="10"/>
<path d="M1651.2 201.6C1588.9 151.4 1503.3 137.8 1423.9 147.9C1344.5 158 1269.6 189.4 1196.2 221.2C1122.8 253 1048.8 285.9 969.9 299.4C866.5 317.2 759.2 300.7 656 319.9C546.8 340.3 449.3 399 346.3 440.5C243.3 482 122.8 505.5 23.7 455.4" stroke="url(#paint8_linear_2_315)" stroke-width="2" stroke-miterlimit="10"/>
<path d="M1571.4 526.5C1512.2 465.6 1415.7 459.7 1332.3 475.9C1248.9 492 1168.5 525.9 1083.7 530.3C1010.8 534 938.3 515.7 865.3 518.1C781.1 520.8 699.5 550.9 615.2 553C471.7 556.6 340.5 480.1 211.7 416.8C194.4 408.3 175.9 399.8 156.8 401.6C137.6 403.3 118.4 419.5 120.7 438.6" stroke="url(#paint9_linear_2_315)" stroke-width="2" stroke-miterlimit="10"/>
<path d="M1636.7 927.3C1577.7 824.9 1486.8 727 1369.2 715.8C1287.9 708.1 1209.4 743.2 1129 757.1C1013.4 777.1 894.2 752.8 783.6 713.4C699.3 683.4 618.1 644.6 532.5 618.3C383.4 572.4 222.4 565.5 69.9 598.6" stroke="url(#paint10_linear_2_315)" stroke-width="2" stroke-miterlimit="10"/>
<path d="M1652.7 526.9C1564.5 482.5 1451.5 492.6 1372.5 551.9C1335.6 579.6 1305.4 617.2 1263.4 636.3C1215.5 658.2 1160.1 652.7 1107.6 648.1C892.3 629.4 675 634.3 460.8 662.7C328.7 680.1 193.7 706.4 63.8999 676.6" stroke="url(#paint11_linear_2_315)" stroke-width="2" stroke-miterlimit="10"/>
<path d="M1724.6 115C1582 88.6 1428.3 130.2 1318.5 225C1271.1 265.9 1232.1 315.6 1186.5 358.6C1141 401.6 1086.3 439 1024.1 446.4C968.5 453.1 913.3 435.4 857.8 428C695.8 406.4 534.6 473.6 395.7 559.8C334.6 597.6 261.9 641.1 195.9 612.8C167.6 600.6 146.2 576.9 120.5 559.9C94.9 542.9 59.2 533.3 34.3 551.3" stroke="url(#paint12_linear_2_315)" stroke-width="2" stroke-miterlimit="10"/>
<path d="M1657.4 355.5C1531.1 319.7 1389.5 342.7 1281 416.6C1221.9 456.8 1169.1 512.7 1098.8 525.9C1041.3 536.7 983 516.6 928 496.7C853.2 469.8 777.2 442.2 713 395.2C667.9 362.2 629.1 320 579.3 294.9C512.6 261.3 432.4 262.4 361 284.3C289.6 306.2 225.7 347.2 165.6 391.5" stroke="url(#paint13_linear_2_315)" stroke-width="2" stroke-miterlimit="10"/>
<path d="M1630.6 708.8C1629.1 683.8 1611 662.1 1589.3 649.6C1567.6 637 1542.5 632 1517.9 627.1C1428.6 609.5 1337.1 591.8 1247.4 606.6C1175.5 618.5 1106.5 651.1 1033.7 649.7C894.4 646.9 783.6 523 645.5 505.2C584.4 497.3 522.8 510.9 463.2 526.3C403.5 541.7 343.5 559.2 281.9 559.2C220.4 559.2 155.6 539 116.8 491.2" stroke="url(#paint14_linear_2_315)" stroke-width="2" stroke-miterlimit="10"/>
<path d="M1671 755.2C1665.4 730.1 1639 714.1 1613.4 712.1C1587.7 710 1562.6 718.8 1538.4 727.5C1437.27 763.7 1336.1 799.9 1234.9 836.1C1210.3 845 1185 853.9 1158.8 854C1132.6 854.1 1104.8 843.5 1091.1 821.2C1073.8 793 1083.4 756.4 1077.1 723.9C1064.8 660.6 994.1 625 929.7 622C865.3 619.1 802 638.9 737.6 641.1C667.7 643.6 598.9 625.4 531.4 607.4C444.133 584.133 356.9 560.833 269.7 537.5C234.2 528.1 198.2 518.4 166.6 499.6C135.1 480.8 108.1 451.3 100.7 415.3" stroke="url(#paint15_linear_2_315)" stroke-width="2" stroke-miterlimit="10"/>
<path d="M1642.1 424C1621 357.7 1560.2 305.8 1491.4 295.5C1422.5 285.1 1349.1 316.9 1309.5 374.1C1285.4 408.9 1273.7 450.9 1251.6 487.1C1229.5 523.3 1190.5 555.1 1148.7 548.4C1121.1 543.9 1095.4 523.2 1068.1 529.3C1032.3 537.4 1020.3 585.2 987.3 601.2C952.3 618.3 910.9 593.1 872.3 597.6C843 601 818.9 620.8 793.9 636.4C768.9 652.1 737.1 664 710.8 650.8C677.9 634.4 663.1 583.3 626.4 585.3C605.4 586.5 590.8 605.8 574.8 619.6C547.6 643.1 511.1 652.9 475.5 657.8C376.7 671.2 273.7 651.3 187.1 602.1" stroke="url(#paint16_linear_2_315)" stroke-width="2" stroke-miterlimit="10"/>
<path d="M1611.9 731.7C1564.7 741 1516.3 715.2 1484.8 678.8C1453.4 642.4 1435.4 596.6 1416.5 552.4C1397.7 508.2 1376.5 463.2 1340.8 431C1320.7 412.9 1294 399 1267.4 403.9C1229.2 411 1208.7 451.5 1189.4 485.2C1170 518.9 1135 554.2 1098.2 541.7C1073.9 533.5 1061 507.8 1046.9 486.4C1032.8 464.9 1008.7 443.8 984.3 451.9C964.8 458.4 955.9 480.3 947 498.8C938.2 517.4 922.3 537.5 901.9 534.6C868.5 529.8 864.3 470.6 830.7 468.6C813.5 467.7 800.3 483.4 792.4 498.7C784.6 514 778.1 531.5 763.4 540.3C739.3 554.7 709.6 538.1 684.3 526.1C628.3 499.4 562 495.4 503.2 514.9C483.1 521.6 462.6 531.2 441.6 528.2C413.6 524.2 392.1 499 364 495.4C333.6 491.5 306.1 514 275.8 518.8C246.1 523.5 214.3 509.4 198 484.2C181.6 459 181.6 424.2 197.9 399" stroke="url(#paint17_linear_2_315)" stroke-width="2" stroke-miterlimit="10"/>
<path d="M1607.3 381.8C1603.1 318 1551 268.1 1497.5 233.1C1443.3 197.7 1374.4 169.9 1315.3 196.3C1275 214.4 1249.1 253.6 1218.2 285.3C1187.4 317 1141.1 343.4 1100.4 326.1C1063.4 310.3 1040.8 261.9 1000.6 262.6C971.5 263.2 946.3 291.1 917.7 285.8C894.3 281.4 878 255.6 854.1 255C826.5 254.3 808.8 287.4 781.5 292.2C741.2 299.2 711 242 670.6 248.3C647 252 630.6 276.7 606.9 279.5C575.3 283.4 549.9 247.1 518.2 249.2C487.4 251.3 468.9 287.9 438.6 293.7C411.3 298.8 385.9 277.3 358.2 275.5C309.3 272.2 273.2 329 224.2 329.7C153.5 330.7 118.7 219 48.1998 224.5" stroke="url(#paint18_linear_2_315)" stroke-width="2" stroke-miterlimit="10"/>
<path d="M1792.1 765.6C1751.4 660 1635.3 588.8 1522.7 600.6C1447.7 608.4 1376.7 648.7 1301.5 643C1245.3 638.8 1194.6 609.3 1143.8 585C1050.6 540.3 951 510.8 851.9 481.6C797.5 465.5 742.6 449.4 686.1 445.3C622.2 440.7 558.4 451.6 494.8 458.7C431.2 465.8 365.4 468.9 304.5 449.4C243.5 429.9 187.7 383.6 172.7 321.4" stroke="url(#paint19_linear_2_315)" stroke-width="2" stroke-miterlimit="10"/>
<path d="M1607.8 437.6C1567.2 391.8 1506 364.8 1444.8 365.8C1387 366.6 1330.9 390.9 1273.2 387.2C1236.2 384.9 1201 371.3 1167.2 356.4C1131.6 340.7 1096.5 323.3 1058.9 313.7C1021.3 304.1 980.1 302.8 944.8 319C910.5 334.6 884.7 365.1 850.6 381C813 398.5 769.7 396.5 728.3 398.2C627.2 402.4 528.9 430.7 429.3 448.6C329.8 466.4 224.3 473.4 130 436.7" stroke="url(#paint20_linear_2_315)" stroke-width="2" stroke-miterlimit="10"/>
<path d="M1788.4 -65.8C1670.4 -93.9 1542.8 -79.8 1433.8 -26.6C1367.4 5.90002 1306.2 52.8 1233.7 67.1C1176.3 78.4 1112.4 69.3 1063.1 100.8C1034.7 118.9 1014.1 149 982.8 161.5C937.6 179.5 885.6 155 838.1 165.5C798.7 174.2 768.7 205.1 733.5 224.5C648.3 271.7 537.9 249.7 452.1 295.8C417.8 314.1 389 342.7 352.3 355.6C307.7 371.3 257.3 361.1 215.5 338.9C173.7 316.7 139 283.6 104.8 250.9" stroke="url(#paint21_linear_2_315)" stroke-width="2" stroke-miterlimit="10"/>
<path d="M1610.9 1006.3C1607.4 973.7 1576 950.6 1544.2 942.4C1512.5 934.2 1479 936.6 1446.6 931.7C1353.5 917.5 1281.5 846.2 1210.2 784.7C1179.4 758.2 1147.1 732.6 1110.3 715.4C1078.6 700.5 1044.3 692.2 1010.3 683.9C891.5 655.1 772.667 626.333 653.8 597.6C602.333 585.067 550.833 572.567 499.3 560.1C463.1 551.3 426.8 542.5 390.8 532.9C353.6 522.9 315.6 511.5 285.6 487.5C244.5 454.9 223.8 403.5 206.4 354" stroke="url(#paint22_linear_2_315)" stroke-width="2" stroke-miterlimit="10"/>
<path d="M1594.8 447.3C1544.2 420.2 1483.3 422.3 1426.5 430.5C1369.7 438.6 1312.6 452.3 1255.6 446.1C1220.7 442.3 1185.8 431.1 1151.1 436.6C1120.5 441.5 1093.4 459 1063.6 467.6C1005 484.7 942.3 466.3 885.2 444.4C828.2 422.5 770.3 396.7 709.2 398.7C678.4 399.7 648.3 407.8 617.5 409.2C582.1 410.9 546.6 403.7 511.2 405.8C469.2 408.4 429.1 423.9 387.9 432.1C346.6 440.4 300.3 440.3 266.5 415.2C271.367 411.667 276.233 408.133 281.1 404.6" stroke="url(#paint23_linear_2_315)" stroke-width="2" stroke-miterlimit="10"/>
<path d="M1680.8 242.8C1667.7 209 1627.5 195.2 1591.6 190C1496.4 176.2 1396.8 195.1 1313.3 242.8C1275 264.7 1237.6 293.2 1193.6 295.3C1157.3 297 1121.1 280.2 1085.5 287.6C1043.1 296.5 1015 336.6 976.7 356.9C949.8 371.1 918.8 375 888.6 378.4C710.7 397.9 531.3 404.3 352.5 397.5" stroke="url(#paint24_linear_2_315)" stroke-width="2" stroke-miterlimit="10"/>
<path d="M1584.8 561.5C1542.8 533.5 1490.5 525 1440 525.6C1389.6 526.2 1339.6 535.2 1289.2 539.1C1182.1 547.4 1073.2 532.2 972.4 495.1C937.1 482.1 902.9 466.5 868.1 452.7C784.2 419.4 696 396.3 606.3 386.7C506 376 404.7 382.2 304 388.5" stroke="url(#paint25_linear_2_315)" stroke-width="2" stroke-miterlimit="10"/>
<path d="M1528.1 879.2C1472.8 890.5 1419.6 852.6 1381.9 810.6C1344.2 768.7 1311.7 719 1261.3 693.8C1234.2 680.2 1203.7 674.8 1176 662.3C1138.5 645.5 1107.9 616.6 1073.9 593.5C944.9 505.9 777.2 505.8 621.6 516.1C552.3 520.6 482.1 526.5 414 512.5C346 498.6 279.2 461.3 247.1 399.8" stroke="url(#paint26_linear_2_315)" stroke-width="2" stroke-miterlimit="10"/>
</g>
<g style="mix-blend-mode:color-dodge">
<path d="M1611.8 784.8C1563.5 843.4 1480.4 863.6 1404.8 855.2C1329.3 846.9 1258.9 814.2 1189.7 782.9C1120.5 751.5 1049.1 720.5 973.3 715.7C892.6 710.6 812.1 735.5 731.6 728.5C634.9 720.1 548.9 667 464.4 619.4C379.9 571.7 286.5 527.1 190.1 537.9C120 545.7 56.8999 582.1 -4.00012 617.8" stroke="url(#paint27_linear_2_315)" stroke-width="2" stroke-miterlimit="10"/>
<path d="M1536.6 659.5C1545.6 661.433 1554.6 663.367 1563.6 665.3C1522.2 714 1454.7 733.9 1390.9 732.6C1327 731.2 1265.2 711.3 1204.2 692.3C1143.2 673.3 1080.7 654.8 1016.8 656.4C864.7 660.2 732.4 776 580.3 779.9C460.5 782.9 341.1 715.6 225.2 746" stroke="url(#paint28_linear_2_315)" stroke-width="2" stroke-miterlimit="10"/>
<path d="M1581.3 424C1544.4 466.8 1484.2 483.4 1427.7 481.4C1371.1 479.3 1316.6 461.2 1262.4 445C1208.2 428.8 1152.1 414.3 1095.8 419.6C1030.6 425.8 971.2 458 908.7 477.5C831.8 501.4 750.4 506 670.1 512.4C589.8 518.9 508.2 527.7 434.2 559.4C360.1 591.1 293.5 649.1 269.9 726.1" stroke="url(#paint29_linear_2_315)" stroke-width="2" stroke-miterlimit="10"/>
<path d="M1581.6 123.4C1511.6 222.9 1387.4 281.5 1266.2 272.4C1182.2 266.1 1101.3 229.9 1017.2 234.1C897.4 240.2 798.2 325.6 712.2 409.2C626.2 492.9 535.1 583.6 417.1 605.2C335.6 620.2 251.4 599.7 169.2 609.4C148.6 611.9 127.4 616.6 111.6 629.9C95.8 643.2 87.3 667.2 97.4 685.3" stroke="url(#paint30_linear_2_315)" stroke-width="2" stroke-miterlimit="10"/>
<path d="M1702.4 608C1564 648.5 1412.1 682.6 1278.8 627.4C1182.5 587.6 1107.9 505.1 1010.1 468.9C875.7 419.2 720 464.7 585.9 414.1C526.3 391.6 475.3 351.5 422.9 315.3C370.5 279.1 313.3 245.5 250 238.8C186.6 232.1 115.8 259.2 88.9999 317" stroke="url(#paint31_linear_2_315)" stroke-width="2" stroke-miterlimit="10"/>
<path d="M1712.2 189.9C1652.9 283 1545.1 337.7 1435.7 352.8C1326.3 367.9 1215 347.6 1108.9 317C1002.7 286.5 899.6 245.8 792.6 218.6C724.9 201.5 653.6 189.8 585.6 205.4C517.6 221 458.7 262.4 401.9 302.9C334.833 350.633 267.8 398.333 200.8 446" stroke="url(#paint32_linear_2_315)" stroke-width="2" stroke-miterlimit="10"/>
<path d="M1486.7 64C1498.6 64.5 1506.3 78.4 1504.5 90.1C1502.6 101.8 1494.1 111.4 1485.3 119.3C1441.8 158 1382.3 173.9 1324.2 178.4C1266.1 182.9 1207.8 177.2 1149.6 178.8C988.8 183.2 828.1 243.1 670.3 212C598.2 197.8 530 165 456.8 159.5C322.4 149.3 187.8 245.3 153.5 375.6" stroke="url(#paint33_linear_2_315)" stroke-width="2" stroke-miterlimit="10"/>
<path d="M1603.4 591.5C1540.3 639.3 1449.8 627.4 1377.1 596.3C1304.4 565.2 1238.6 517.3 1162.3 496.4C1066.4 470 961.1 488.1 868.2 452.9C785.6 421.7 723.2 352.3 644 313.4C564.3 274.3 472.5 268.4 383.8 270.7C295 273 205.9 282.7 117.8 272" stroke="url(#paint34_linear_2_315)" stroke-width="2" stroke-miterlimit="10"/>
<path d="M1651.2 724.7C1588.9 774.9 1503.3 788.4 1423.9 778.4C1344.5 768.3 1269.6 736.9 1196.2 705.1C1122.8 673.3 1048.8 640.4 969.9 626.9C866.5 609.1 759.2 625.6 656 606.4C546.8 586 449.3 527.3 346.3 485.8C243.3 444.2 122.8 420.8 23.7 470.9" stroke="url(#paint35_linear_2_315)" stroke-width="2" stroke-miterlimit="10"/>
<path d="M1571.4 399.8C1512.2 460.7 1415.7 466.6 1332.3 450.4C1248.9 434.3 1168.5 400.4 1083.7 396C1010.8 392.3 938.3 410.6 865.3 408.2C781.1 405.5 699.5 375.4 615.2 373.3C471.7 369.6 340.5 446.2 211.7 509.5C194.4 518 175.9 526.5 156.8 524.7C137.6 523 118.4 506.8 120.7 487.7" stroke="url(#paint36_linear_2_315)" stroke-width="2" stroke-miterlimit="10"/>
<path d="M1636.7 -1C1577.7 101.4 1486.8 199.3 1369.2 210.5C1287.9 218.2 1209.4 183.1 1129 169.2C1013.4 149.2 894.2 173.5 783.6 212.9C699.3 242.9 618.1 281.6 532.5 308C383.4 353.9 222.4 360.8 69.9 327.7" stroke="url(#paint37_linear_2_315)" stroke-width="2" stroke-miterlimit="10"/>
<path d="M1652.7 399.4C1564.5 443.7 1451.5 433.7 1372.5 374.4C1335.6 346.7 1305.4 309.1 1263.4 290C1215.5 268.1 1160.1 273.6 1107.6 278.2C892.3 296.9 675 292 460.8 263.6C328.7 246.2 193.7 219.9 63.8999 249.7" stroke="url(#paint38_linear_2_315)" stroke-width="2" stroke-miterlimit="10"/>
<path d="M1724.6 811.3C1582 837.7 1428.3 796.1 1318.5 701.3C1271.1 660.4 1232.1 610.7 1186.5 567.7C1141 524.7 1086.3 487.3 1024.1 479.8C968.5 473.2 913.3 490.9 857.8 498.3C695.8 519.9 534.6 452.7 395.7 366.5C334.6 328.7 261.9 285.2 195.9 313.5C167.6 325.7 146.2 349.4 120.5 366.4C94.9 383.4 59.2 393 34.3 375" stroke="url(#paint39_linear_2_315)" stroke-width="2" stroke-miterlimit="10"/>
<path d="M1657.4 570.8C1531.1 606.6 1389.5 583.6 1281 509.7C1221.9 469.4 1169.1 413.6 1098.8 400.4C1041.3 389.5 983 409.7 928 429.5C853.2 456.5 777.2 484.1 713 531.1C667.9 564.1 629.1 606.3 579.3 631.4C512.6 665 432.4 663.9 361 642C289.6 620.1 225.7 579.1 165.6 534.8" stroke="url(#paint40_linear_2_315)" stroke-width="2" stroke-miterlimit="10"/>
<path d="M1630.6 217.5C1629.1 242.5 1611 264.2 1589.3 276.7C1567.6 289.3 1542.5 294.3 1517.9 299.2C1428.6 316.8 1337.1 334.5 1247.4 319.7C1175.5 307.8 1106.5 275.2 1033.7 276.6C894.4 279.4 783.6 403.3 645.5 421.1C584.4 429 522.8 415.4 463.2 400C403.5 384.6 343.5 367.1 281.9 367.1C220.4 367.1 155.6 387.3 116.8 435.1" stroke="url(#paint41_linear_2_315)" stroke-width="2" stroke-miterlimit="10"/>
<path d="M1671 171.1C1665.4 196.2 1639 212.2 1613.4 214.2C1587.7 216.3 1562.6 207.5 1538.4 198.8C1437.27 162.6 1336.1 126.4 1234.9 90.2C1210.3 81.3 1185 72.4 1158.8 72.3C1132.6 72.2 1104.8 82.7 1091.1 105.1C1073.8 133.3 1083.4 169.9 1077.1 202.4C1064.8 265.7 994.1 301.3 929.7 304.2C865.3 307.2 802 287.4 737.6 285.2C667.7 282.7 598.9 300.9 531.4 318.9C444.133 342.167 356.9 365.433 269.7 388.7C234.2 398.2 198.2 407.9 166.6 426.7C135.1 445.5 108.1 475 100.7 511" stroke="url(#paint42_linear_2_315)" stroke-width="2" stroke-miterlimit="10"/>
<path d="M1642.1 502.3C1621 568.6 1560.2 620.5 1491.4 630.8C1422.5 641.2 1349.1 609.4 1309.5 552.2C1285.4 517.4 1273.7 475.4 1251.6 439.2C1229.5 403 1190.5 371.2 1148.7 377.9C1121.1 382.4 1095.4 403.1 1068.1 397C1032.3 388.9 1020.3 341.1 987.3 325C952.3 308 910.9 333.2 872.3 328.7C843 325.3 818.9 305.5 793.9 289.8C768.9 274.2 737.1 262.3 710.8 275.5C677.9 291.9 663.1 342.9 626.4 340.9C605.4 339.8 590.8 320.5 574.8 306.7C547.6 283.2 511.1 273.4 475.5 268.5C376.7 255.1 273.7 275 187.1 324.2" stroke="url(#paint43_linear_2_315)" stroke-width="2" stroke-miterlimit="10"/>
<path d="M1611.9 194.6C1564.7 185.3 1516.3 211.1 1484.8 247.5C1453.4 283.9 1435.4 329.6 1416.5 373.9C1397.7 418.1 1376.5 463.1 1340.8 495.3C1320.7 513.4 1294 527.3 1267.4 522.4C1229.2 515.3 1208.7 474.8 1189.4 441.1C1170 407.4 1135 372.1 1098.2 384.6C1073.9 392.8 1061 418.5 1046.9 439.9C1032.8 461.4 1008.7 482.5 984.3 474.4C964.8 467.9 955.9 446 947 427.4C938.2 408.9 922.3 388.8 901.9 391.7C868.5 396.5 864.3 455.7 830.7 457.6C813.5 458.6 800.3 442.9 792.4 427.6C784.6 412.3 778.1 394.8 763.4 386C739.3 371.6 709.6 388.2 684.3 400.2C628.3 426.9 562 430.9 503.2 411.4C483.1 404.6 462.6 395.1 441.6 398.1C413.6 402.1 392.1 427.3 364 430.9C333.6 434.8 306.1 412.3 275.8 407.5C246.1 402.8 214.3 416.9 198 442.1C181.6 467.3 181.6 502.1 197.9 527.3" stroke="url(#paint44_linear_2_315)" stroke-width="2" stroke-miterlimit="10"/>
<path d="M1607.3 544.5C1603.1 608.3 1551 658.2 1497.5 693.2C1443.3 728.6 1374.4 756.4 1315.3 730C1275 711.9 1249.1 672.7 1218.2 641C1187.4 609.3 1141.1 582.9 1100.4 600.2C1063.4 616 1040.8 664.4 1000.6 663.6C971.5 663.1 946.3 635.2 917.7 640.5C894.3 644.9 878 670.7 854.1 671.3C826.5 672 808.8 638.8 781.5 634.1C741.2 627.1 711 684.3 670.6 678C647 674.3 630.6 649.6 606.9 646.8C575.3 642.9 549.9 679.2 518.2 677.1C487.4 675 468.9 638.4 438.6 632.6C411.3 627.5 385.9 649 358.2 650.8C309.3 654.1 273.2 597.3 224.2 596.6C153.5 595.5 118.7 707.3 48.1998 701.8" stroke="url(#paint45_linear_2_315)" stroke-width="2" stroke-miterlimit="10"/>
<path d="M1792.1 160.7C1751.4 266.3 1635.3 337.5 1522.7 325.7C1447.7 317.9 1376.7 277.6 1301.5 283.3C1245.3 287.5 1194.6 316.9 1143.8 341.3C1050.6 386 951 415.5 851.9 444.7C797.5 460.8 742.6 476.9 686.1 481C622.2 485.6 558.4 474.7 494.8 467.6C431.2 460.5 365.4 457.4 304.5 476.9C243.5 496.4 187.7 542.7 172.7 604.9" stroke="url(#paint46_linear_2_315)" stroke-width="2" stroke-miterlimit="10"/>
<path d="M1607.8 488.7C1567.2 534.5 1506 561.5 1444.8 560.5C1387 559.7 1330.9 535.4 1273.2 539C1236.2 541.4 1201 555 1167.2 569.9C1131.6 585.6 1096.5 603 1058.9 612.6C1021.3 622.2 980.1 623.4 944.8 607.3C910.5 591.7 884.7 561.2 850.6 545.3C813 527.8 769.7 529.8 728.3 528.1C627.2 523.9 528.9 495.6 429.3 477.7C329.8 459.9 224.3 452.9 130 489.6" stroke="url(#paint47_linear_2_315)" stroke-width="2" stroke-miterlimit="10"/>
<path d="M1788.4 992.1C1670.4 1020.2 1542.8 1006.1 1433.8 952.9C1367.4 920.4 1306.2 873.5 1233.7 859.2C1176.3 847.9 1112.4 857 1063.1 825.5C1034.7 807.4 1014.1 777.3 982.8 764.8C937.6 746.8 885.6 771.2 838.1 760.8C798.7 752.1 768.7 721.2 733.5 701.8C648.3 654.6 537.9 676.6 452.1 630.5C417.8 612.1 389 583.6 352.3 570.7C307.7 555 257.3 565.2 215.5 587.4C173.7 609.6 139 642.7 104.8 675.4" stroke="url(#paint48_linear_2_315)" stroke-width="2" stroke-miterlimit="10"/>
<path d="M1610.9 -80C1607.4 -47.4 1576 -24.3 1544.2 -16.1C1512.5 -7.9 1479 -10.4 1446.6 -5.4C1353.5 8.8 1281.5 80.1 1210.2 141.6C1179.4 168.1 1147.1 193.7 1110.3 210.9C1078.6 225.8 1044.3 234.1 1010.3 242.3C891.5 271.1 772.667 299.9 653.8 328.7C602.333 341.233 550.833 353.733 499.3 366.2C463.1 375 426.8 383.8 390.8 393.4C353.6 403.4 315.6 414.8 285.6 438.7C244.5 471.4 223.8 522.8 206.4 572.3" stroke="url(#paint49_linear_2_315)" stroke-width="2" stroke-miterlimit="10"/>
<path d="M1594.8 479C1544.2 506 1483.3 504 1426.5 495.8C1369.7 487.7 1312.6 474 1255.6 480.2C1220.7 484 1185.8 495.2 1151.1 489.7C1120.5 484.8 1093.4 467.3 1063.6 458.7C1005 441.6 942.3 460 885.2 481.9C828.2 503.7 770.3 529.6 709.2 527.6C678.4 526.6 648.3 518.5 617.5 517C582.1 515.4 546.6 522.6 511.2 520.5C469.2 517.9 429.1 502.4 387.9 494.2C346.6 485.9 300.3 486 266.5 511.1C271.367 514.633 276.233 518.167 281.1 521.7" stroke="url(#paint50_linear_2_315)" stroke-width="2" stroke-miterlimit="10"/>
<path d="M1680.8 683.4C1667.7 717.3 1627.5 731.1 1591.6 736.3C1496.4 750.1 1396.8 731.2 1313.3 683.5C1275 661.6 1237.6 633.1 1193.6 631C1157.3 629.3 1121.1 646.1 1085.5 638.7C1043.1 629.8 1015 589.7 976.7 569.4C949.8 555.2 918.8 551.2 888.6 547.9C710.7 528.4 531.3 522 352.5 528.8" stroke="url(#paint51_linear_2_315)" stroke-width="2" stroke-miterlimit="10"/>
<path d="M1584.8 364.7C1542.8 392.7 1490.5 401.3 1440 400.7C1389.6 400.1 1339.6 391.1 1289.2 387.2C1182.1 378.9 1073.2 394 972.4 431.2C937.1 444.2 902.9 459.8 868.1 473.6C784.2 506.9 696 530 606.3 539.6C506 550.2 404.7 544 304 537.8" stroke="url(#paint52_linear_2_315)" stroke-width="2" stroke-miterlimit="10"/>
<path d="M1528.1 47.1C1472.8 35.8 1419.6 73.7 1381.9 115.6C1344.2 157.6 1311.7 207.3 1261.3 232.5C1234.2 246.1 1203.7 251.5 1176 264C1138.5 280.8 1107.9 309.7 1073.9 332.8C944.9 420.4 777.2 420.5 621.6 410.2C552.3 405.7 482.1 399.8 414 413.8C346 427.7 279.2 465 247.1 526.5" stroke="url(#paint53_linear_2_315)" stroke-width="2" stroke-miterlimit="10"/>
</g>
<g style="mix-blend-mode:color-dodge">
<path d="M150.5 336.2C150.5 339.1 152.9 341.5 155.8 341.5C158.8 341.5 161.1 339.1 161.1 336.2C161.1 333.2 158.8 330.8 155.8 330.8C152.9 330.8 150.5 333.2 150.5 336.2Z" fill="url(#paint54_radial_2_315)"/>
<g opacity="0.49">
<path d="M160.1 499.4C160.1 502.3 162.5 504.7 165.4 504.7C168.3 504.7 170.7 502.3 170.7 499.4C170.7 496.5 168.3 494.1 165.4 494.1C162.5 494.1 160.1 496.5 160.1 499.4Z" fill="url(#paint55_radial_2_315)"/>
</g>
<g opacity="0.27">
<path d="M221.3 680.1C221.3 683 223.7 685.4 226.6 685.4C229.5 685.4 231.9 683 231.9 680.1C231.9 677.1 229.5 674.7 226.6 674.7C223.7 674.7 221.3 677.1 221.3 680.1Z" fill="url(#paint56_radial_2_315)"/>
</g>
<g opacity="0.33">
<path d="M248.5 597.8C248.5 600.7 250.9 603.1 253.8 603.1C256.8 603.1 259.2 600.7 259.2 597.8C259.2 594.8 256.8 592.4 253.8 592.4C250.9 592.4 248.5 594.8 248.5 597.8Z" fill="url(#paint57_radial_2_315)"/>
</g>
<g opacity="0.74">
<path d="M314.3 381.4C314.3 384.4 316.7 386.7 319.7 386.7C322.6 386.7 325 384.4 325 381.4C325 378.5 322.6 376.1 319.7 376.1C316.7 376.1 314.3 378.5 314.3 381.4Z" fill="url(#paint58_radial_2_315)"/>
</g>
<g opacity="0.31">
<path d="M407.9 399.9C407.9 402.9 410.3 405.2 413.2 405.2C416.2 405.2 418.6 402.9 418.6 399.9C418.6 397 416.2 394.6 413.2 394.6C410.3 394.6 407.9 397 407.9 399.9Z" fill="url(#paint59_radial_2_315)"/>
</g>
<g opacity="0.58">
<path d="M586.3 394.8C586.3 397.8 588.7 400.1 591.6 400.1C594.6 400.1 597 397.8 597 394.8C597 391.9 594.6 389.5 591.6 389.5C588.7 389.5 586.3 391.9 586.3 394.8Z" fill="url(#paint60_radial_2_315)"/>
</g>
<g opacity="0.87">
<path d="M637.4 356.6C637.4 359.5 639.8 361.9 642.7 361.9C645.6 361.9 648 359.5 648 356.6C648 353.6 645.6 351.3 642.7 351.3C639.8 351.3 637.4 353.6 637.4 356.6Z" fill="url(#paint61_radial_2_315)"/>
</g>
<g opacity="0.87">
<path d="M581.2 293.5C581.2 296.5 583.5 298.9 586.5 298.9C589.4 298.9 591.8 296.5 591.8 293.5C591.8 290.6 589.4 288.2 586.5 288.2C583.5 288.2 581.2 290.6 581.2 293.5Z" fill="url(#paint62_radial_2_315)"/>
</g>
<g opacity="0.6">
<path d="M603 474.1C603 477.1 605.4 479.5 608.4 479.5C611.3 479.5 613.7 477.1 613.7 474.1C613.7 471.2 611.3 468.8 608.4 468.8C605.4 468.8 603 471.2 603 474.1Z" fill="url(#paint63_radial_2_315)"/>
</g>
<g opacity="0.83">
<path d="M570.2 603.6C570.2 606.5 572.6 608.9 575.5 608.9C578.5 608.9 580.9 606.5 580.9 603.6C580.9 600.6 578.5 598.2 575.5 598.2C572.6 598.2 570.2 600.6 570.2 603.6Z" fill="url(#paint64_radial_2_315)"/>
</g>
<g opacity="0.41">
<path d="M539.6 547.8C539.6 550.7 542 553.1 544.9 553.1C547.9 553.1 550.3 550.7 550.3 547.8C550.3 544.8 547.9 542.5 544.9 542.5C542 542.5 539.6 544.8 539.6 547.8Z" fill="url(#paint65_radial_2_315)"/>
</g>
<g opacity="0.97">
<path d="M654.3 320.8C654.3 323.8 656.7 326.1 659.6 326.1C662.5 326.1 664.9 323.8 664.9 320.8C664.9 317.9 662.5 315.5 659.6 315.5C656.7 315.5 654.3 317.9 654.3 320.8Z" fill="url(#paint66_radial_2_315)"/>
</g>
<g opacity="0.7">
<path d="M852 211.5C852 214.4 854.4 216.8 857.4 216.8C860.3 216.8 862.7 214.4 862.7 211.5C862.7 208.5 860.3 206.1 857.4 206.1C854.4 206.1 852 208.5 852 211.5Z" fill="url(#paint67_radial_2_315)"/>
</g>
<g opacity="0.81">
<path d="M936.2 213.8C936.2 216.8 938.5 219.1 941.5 219.1C944.4 219.1 946.8 216.8 946.8 213.8C946.8 210.9 944.4 208.5 941.5 208.5C938.5 208.5 936.2 210.9 936.2 213.8Z" fill="url(#paint68_radial_2_315)"/>
</g>
<g opacity="0.38">
<path d="M857.7 429.1C857.7 432 860.1 434.4 863 434.4C865.9 434.4 868.3 432 868.3 429.1C868.3 426.1 865.9 423.7 863 423.7C860.1 423.7 857.7 426.1 857.7 429.1Z" fill="url(#paint69_radial_2_315)"/>
</g>
<g opacity="0.4">
<path d="M853.7 633.7C853.7 636.7 856.1 639.1 859 639.1C862 639.1 864.4 636.7 864.4 633.7C864.4 630.8 862 628.4 859 628.4C856.1 628.4 853.7 630.8 853.7 633.7Z" fill="url(#paint70_radial_2_315)"/>
</g>
<g opacity="0.64">
<path d="M705.3 677.6C705.3 680.6 707.7 683 710.6 683C713.6 683 716 680.6 716 677.6C716 674.7 713.6 672.3 710.6 672.3C707.7 672.3 705.3 674.7 705.3 677.6Z" fill="url(#paint71_radial_2_315)"/>
</g>
<g opacity="0.55">
<path d="M744.8 794.9C744.8 797.8 747.2 800.2 750.1 800.2C753.1 800.2 755.4 797.8 755.4 794.9C755.4 791.9 753.1 789.5 750.1 789.5C747.2 789.5 744.8 791.9 744.8 794.9Z" fill="url(#paint72_radial_2_315)"/>
</g>
<g opacity="0.37">
<path d="M906 543.4C906 546.3 908.4 548.7 911.3 548.7C914.3 548.7 916.6 546.3 916.6 543.4C916.6 540.4 914.3 538 911.3 538C908.4 538 906 540.4 906 543.4Z" fill="url(#paint73_radial_2_315)"/>
</g>
<g opacity="0.76">
<path d="M737.5 433.2C737.5 436.1 739.9 438.5 742.9 438.5C745.8 438.5 748.2 436.1 748.2 433.2C748.2 430.2 745.8 427.8 742.9 427.8C739.9 427.8 737.5 430.2 737.5 433.2Z" fill="url(#paint74_radial_2_315)"/>
</g>
<g opacity="0.72">
<path d="M609.1 372.5C609.1 375.5 611.5 377.9 614.4 377.9C617.4 377.9 619.8 375.5 619.8 372.5C619.8 369.6 617.4 367.2 614.4 367.2C611.5 367.2 609.1 369.6 609.1 372.5Z" fill="url(#paint75_radial_2_315)"/>
</g>
<g opacity="0.73">
<path d="M820.9 288.8C820.9 291.8 823.3 294.2 826.2 294.2C829.2 294.2 831.6 291.8 831.6 288.8C831.6 285.9 829.2 283.5 826.2 283.5C823.3 283.5 820.9 285.9 820.9 288.8Z" fill="url(#paint76_radial_2_315)"/>
</g>
<path d="M1069 378.8C1069 381.8 1071.4 384.2 1074.3 384.2C1077.2 384.2 1079.6 381.8 1079.6 378.8C1079.6 375.9 1077.2 373.5 1074.3 373.5C1071.4 373.5 1069 375.9 1069 378.8Z" fill="url(#paint77_radial_2_315)"/>
<g opacity="0.9">
<path d="M1173.8 778.2C1173.8 781.1 1176.2 783.5 1179.2 783.5C1182.1 783.5 1184.5 781.1 1184.5 778.2C1184.5 775.2 1182.1 772.8 1179.2 772.8C1176.2 772.8 1173.8 775.2 1173.8 778.2Z" fill="url(#paint78_radial_2_315)"/>
</g>
<g opacity="0.89">
<path d="M1140.5 830.2C1140.5 833.1 1142.9 835.5 1145.8 835.5C1148.7 835.5 1151.1 833.1 1151.1 830.2C1151.1 827.2 1148.7 824.8 1145.8 824.8C1142.9 824.8 1140.5 827.2 1140.5 830.2Z" fill="url(#paint79_radial_2_315)"/>
</g>
<g opacity="0.82">
<path d="M987.8 698.1C987.8 701.1 990.2 703.5 993.1 703.5C996.1 703.5 998.4 701.1 998.4 698.1C998.4 695.2 996.1 692.8 993.1 692.8C990.2 692.8 987.8 695.2 987.8 698.1Z" fill="url(#paint80_radial_2_315)"/>
</g>
<g opacity="0.76">
<path d="M1194.6 282.4C1194.6 285.4 1197 287.8 1200 287.8C1202.9 287.8 1205.3 285.4 1205.3 282.4C1205.3 279.5 1202.9 277.1 1200 277.1C1197 277.1 1194.6 279.5 1194.6 282.4Z" fill="url(#paint81_radial_2_315)"/>
</g>
<g opacity="0.72">
<path d="M1226.3 36.8C1226.3 39.7 1228.7 42.1 1231.6 42.1C1234.6 42.1 1236.9 39.7 1236.9 36.8C1236.9 33.8 1234.6 31.4 1231.6 31.4C1228.7 31.4 1226.3 33.8 1226.3 36.8Z" fill="url(#paint82_radial_2_315)"/>
</g>
<g opacity="0.56">
<path d="M1318.3 458.9C1318.3 461.8 1320.7 464.2 1323.6 464.2C1326.6 464.2 1329 461.8 1329 458.9C1329 455.9 1326.6 453.5 1323.6 453.5C1320.7 453.5 1318.3 455.9 1318.3 458.9Z" fill="url(#paint83_radial_2_315)"/>
</g>
<g opacity="0.94">
<path d="M1228.8 725.4C1228.8 728.3 1231.2 730.7 1234.2 730.7C1237.1 730.7 1239.5 728.3 1239.5 725.4C1239.5 722.4 1237.1 720 1234.2 720C1231.2 720 1228.8 722.4 1228.8 725.4Z" fill="url(#paint84_radial_2_315)"/>
</g>
<path d="M1373.3 186.1C1373.3 189 1375.6 191.4 1378.6 191.4C1381.5 191.4 1383.9 189 1383.9 186.1C1383.9 183.2 1381.5 180.8 1378.6 180.8C1375.6 180.8 1373.3 183.2 1373.3 186.1Z" fill="url(#paint85_radial_2_315)"/>
<g opacity="0.57">
<path d="M1291.2 433.3C1291.2 436.3 1293.6 438.7 1296.5 438.7C1299.5 438.7 1301.8 436.3 1301.8 433.3C1301.8 430.4 1299.5 428 1296.5 428C1293.6 428 1291.2 430.4 1291.2 433.3Z" fill="url(#paint86_radial_2_315)"/>
</g>
<g opacity="0.83">
<path d="M1317.4 665.8C1317.4 668.7 1319.8 671.1 1322.8 671.1C1325.7 671.1 1328.1 668.7 1328.1 665.8C1328.1 662.8 1325.7 660.4 1322.8 660.4C1319.8 660.4 1317.4 662.8 1317.4 665.8Z" fill="url(#paint87_radial_2_315)"/>
</g>
<g opacity="0.95">
<path d="M1293.7 710.9C1293.7 713.8 1296.1 716.2 1299 716.2C1302 716.2 1304.4 713.8 1304.4 710.9C1304.4 708 1302 705.6 1299 705.6C1296.1 705.6 1293.7 708 1293.7 710.9Z" fill="url(#paint88_radial_2_315)"/>
</g>
<g opacity="0.73">
<path d="M1249.3 375.2C1249.3 378.2 1251.7 380.6 1254.7 380.6C1257.6 380.6 1260 378.2 1260 375.2C1260 372.3 1257.6 369.9 1254.7 369.9C1251.7 369.9 1249.3 372.3 1249.3 375.2Z" fill="url(#paint89_radial_2_315)"/>
</g>
<g opacity="0.64">
<path d="M1361.9 900.1C1361.9 903 1364.3 905.4 1367.3 905.4C1370.2 905.4 1372.6 903 1372.6 900.1C1372.6 897.1 1370.2 894.7 1367.3 894.7C1364.3 894.7 1361.9 897.1 1361.9 900.1Z" fill="url(#paint90_radial_2_315)"/>
</g>
<g opacity="0.84">
<path d="M1256 260.9C1256 263.9 1258.4 266.3 1261.3 266.3C1264.2 266.3 1266.6 263.9 1266.6 260.9C1266.6 258 1264.2 255.6 1261.3 255.6C1258.4 255.6 1256 258 1256 260.9Z" fill="url(#paint91_radial_2_315)"/>
</g>
<g opacity="0.64">
<path d="M1305.1 828.9C1305.1 831.8 1307.5 834.2 1310.4 834.2C1313.4 834.2 1315.7 831.8 1315.7 828.9C1315.7 825.9 1313.4 823.5 1310.4 823.5C1307.5 823.5 1305.1 825.9 1305.1 828.9Z" fill="url(#paint92_radial_2_315)"/>
</g>
<g opacity="0.9">
<path d="M1217.3 339.3C1217.3 342.2 1219.7 344.6 1222.7 344.6C1225.6 344.6 1228 342.2 1228 339.3C1228 336.3 1225.6 333.9 1222.7 333.9C1219.7 333.9 1217.3 336.3 1217.3 339.3Z" fill="url(#paint93_radial_2_315)"/>
</g>
<g opacity="0.79">
<path d="M1213.2 676.4C1213.2 679.4 1215.6 681.8 1218.5 681.8C1221.5 681.8 1223.9 679.4 1223.9 676.4C1223.9 673.5 1221.5 671.1 1218.5 671.1C1215.6 671.1 1213.2 673.5 1213.2 676.4Z" fill="url(#paint94_radial_2_315)"/>
</g>
<g opacity="0.49">
<path d="M1173.6 469.4C1173.6 472.4 1176 474.8 1179 474.8C1181.9 474.8 1184.3 472.4 1184.3 469.4C1184.3 466.5 1181.9 464.1 1179 464.1C1176 464.1 1173.6 466.5 1173.6 469.4Z" fill="url(#paint95_radial_2_315)"/>
</g>
<g opacity="0.55">
<path d="M1145.9 554.5C1145.9 557.4 1148.3 559.8 1151.3 559.8C1154.2 559.8 1156.6 557.4 1156.6 554.5C1156.6 551.5 1154.2 549.1 1151.3 549.1C1148.3 549.1 1145.9 551.5 1145.9 554.5Z" fill="url(#paint96_radial_2_315)"/>
</g>
<g opacity="0.83">
<path d="M1099.1 424C1099.1 426.9 1101.4 429.3 1104.4 429.3C1107.3 429.3 1109.7 426.9 1109.7 424C1109.7 421.1 1107.3 418.7 1104.4 418.7C1101.4 418.7 1099.1 421.1 1099.1 424Z" fill="url(#paint97_radial_2_315)"/>
</g>
<g opacity="0.97">
<path d="M1053.8 671.9C1053.8 674.8 1056.2 677.2 1059.2 677.2C1062.1 677.2 1064.5 674.8 1064.5 671.9C1064.5 668.9 1062.1 666.6 1059.2 666.6C1056.2 666.6 1053.8 668.9 1053.8 671.9Z" fill="url(#paint98_radial_2_315)"/>
</g>
<g opacity="0.98">
<path d="M1023.4 784.4C1023.4 787.4 1025.8 789.8 1028.8 789.8C1031.7 789.8 1034.1 787.4 1034.1 784.4C1034.1 781.5 1031.7 779.1 1028.8 779.1C1025.8 779.1 1023.4 781.5 1023.4 784.4Z" fill="url(#paint99_radial_2_315)"/>
</g>
<g opacity="0.67">
<path d="M1115.3 467C1115.3 470 1117.6 472.3 1120.6 472.3C1123.5 472.3 1125.9 470 1125.9 467C1125.9 464.1 1123.5 461.7 1120.6 461.7C1117.6 461.7 1115.3 464.1 1115.3 467Z" fill="url(#paint100_radial_2_315)"/>
</g>
<g opacity="0.46">
<path d="M1094 201.2C1094 204.2 1096.4 206.5 1099.4 206.5C1102.3 206.5 1104.7 204.2 1104.7 201.2C1104.7 198.3 1102.3 195.9 1099.4 195.9C1096.4 195.9 1094 198.3 1094 201.2Z" fill="url(#paint101_radial_2_315)"/>
</g>
<g opacity="0.65">
<path d="M1045.8 55.8C1045.8 58.8 1048.2 61.2 1051.2 61.2C1054.1 61.2 1056.5 58.8 1056.5 55.8C1056.5 52.9 1054.1 50.5 1051.2 50.5C1048.2 50.5 1045.8 52.9 1045.8 55.8Z" fill="url(#paint102_radial_2_315)"/>
</g>
<path d="M1103.3 350.6C1103.3 353.5 1105.7 355.9 1108.7 355.9C1111.6 355.9 1114 353.5 1114 350.6C1114 347.6 1111.6 345.2 1108.7 345.2C1105.7 345.2 1103.3 347.6 1103.3 350.6Z" fill="url(#paint103_radial_2_315)"/>
<g opacity="0.87">
<path d="M1098.1 317.5C1098.1 320.5 1100.5 322.8 1103.5 322.8C1106.4 322.8 1108.8 320.5 1108.8 317.5C1108.8 314.6 1106.4 312.2 1103.5 312.2C1100.5 312.2 1098.1 314.6 1098.1 317.5Z" fill="url(#paint104_radial_2_315)"/>
</g>
<g opacity="0.45">
<path d="M905.3 648.9C905.3 651.8 907.7 654.2 910.6 654.2C913.6 654.2 916 651.8 916 648.9C916 646 913.6 643.6 910.6 643.6C907.7 643.6 905.3 646 905.3 648.9Z" fill="url(#paint105_radial_2_315)"/>
</g>
<g opacity="0.42">
<path d="M838 777.6C838 780.5 840.4 782.9 843.3 782.9C846.3 782.9 848.7 780.5 848.7 777.6C848.7 774.6 846.3 772.2 843.3 772.2C840.4 772.2 838 774.6 838 777.6Z" fill="url(#paint106_radial_2_315)"/>
</g>
<g opacity="0.4">
<path d="M794 685.7C794 688.7 796.4 691 799.3 691C802.3 691 804.7 688.7 804.7 685.7C804.7 682.8 802.3 680.4 799.3 680.4C796.4 680.4 794 682.8 794 685.7Z" fill="url(#paint107_radial_2_315)"/>
</g>
<g opacity="0.49">
<path d="M744 694.4C744 697.4 746.4 699.7 749.4 699.7C752.3 699.7 754.7 697.4 754.7 694.4C754.7 691.5 752.3 689.1 749.4 689.1C746.4 689.1 744 691.5 744 694.4Z" fill="url(#paint108_radial_2_315)"/>
</g>
<g opacity="0.93">
<path d="M650.5 633.8C650.5 636.7 652.9 639.1 655.8 639.1C658.8 639.1 661.2 636.7 661.2 633.8C661.2 630.8 658.8 628.4 655.8 628.4C652.9 628.4 650.5 630.8 650.5 633.8Z" fill="url(#paint109_radial_2_315)"/>
</g>
<path d="M606.1 668.7C606.1 671.6 608.5 674 611.5 674C614.4 674 616.8 671.6 616.8 668.7C616.8 665.7 614.4 663.3 611.5 663.3C608.5 663.3 606.1 665.7 606.1 668.7Z" fill="url(#paint110_radial_2_315)"/>
<g opacity="0.16">
<path d="M419.4 504.2C419.4 507.2 421.7 509.6 424.7 509.6C427.6 509.6 430 507.2 430 504.2C430 501.3 427.6 498.9 424.7 498.9C421.7 498.9 419.4 501.3 419.4 504.2Z" fill="url(#paint111_radial_2_315)"/>
</g>
<g opacity="0.42">
<path d="M279.9 552.2C279.9 555.1 282.3 557.5 285.3 557.5C288.2 557.5 290.6 555.1 290.6 552.2C290.6 549.3 288.2 546.9 285.3 546.9C282.3 546.9 279.9 549.3 279.9 552.2Z" fill="url(#paint112_radial_2_315)"/>
</g>
<g opacity="0.84">
<path d="M189.1 399.3C189.1 402.3 191.5 404.7 194.5 404.7C197.4 404.7 199.8 402.3 199.8 399.3C199.8 396.4 197.4 394 194.5 394C191.5 394 189.1 396.4 189.1 399.3Z" fill="url(#paint113_radial_2_315)"/>
</g>
<g opacity="0.55">
<path d="M43.9998 476.3C43.9998 479.2 46.3998 481.6 49.2998 481.6C52.2998 481.6 54.6997 479.2 54.6997 476.3C54.6997 473.3 52.2998 471 49.2998 471C46.3998 471 43.9998 473.3 43.9998 476.3Z" fill="url(#paint114_radial_2_315)"/>
</g>
<g opacity="0.38">
<path d="M849.5 515.4C849.5 518.4 851.9 520.8 854.8 520.8C857.8 520.8 860.1 518.4 860.1 515.4C860.1 512.5 857.8 510.1 854.8 510.1C851.9 510.1 849.5 512.5 849.5 515.4Z" fill="url(#paint115_radial_2_315)"/>
</g>
<g opacity="0.88">
<path d="M689.5 182C689.5 184.9 691.9 187.3 694.9 187.3C697.8 187.3 700.2 184.9 700.2 182C700.2 179 697.8 176.7 694.9 176.7C691.9 176.7 689.5 179 689.5 182Z" fill="url(#paint116_radial_2_315)"/>
</g>
<g opacity="0.95">
<path d="M688.3 390.3C688.3 393.3 690.7 395.7 693.7 395.7C696.6 395.7 699 393.3 699 390.3C699 387.4 696.6 385 693.7 385C690.7 385 688.3 387.4 688.3 390.3Z" fill="url(#paint117_radial_2_315)"/>
</g>
<g opacity="0.49">
<path d="M809.8 532.7C809.8 535.6 812.2 538 815.1 538C818.1 538 820.5 535.6 820.5 532.7C820.5 529.7 818.1 527.4 815.1 527.4C812.2 527.4 809.8 529.7 809.8 532.7Z" fill="url(#paint118_radial_2_315)"/>
</g>
<g opacity="0.71">
<path d="M869 290.5C869 293.5 871.4 295.9 874.3 295.9C877.3 295.9 879.7 293.5 879.7 290.5C879.7 287.6 877.3 285.2 874.3 285.2C871.4 285.2 869 287.6 869 290.5Z" fill="url(#paint119_radial_2_315)"/>
</g>
<g opacity="0.8">
<path d="M1155.2 660.1C1155.2 663 1157.6 665.4 1160.5 665.4C1163.5 665.4 1165.9 663 1165.9 660.1C1165.9 657.1 1163.5 654.7 1160.5 654.7C1157.6 654.7 1155.2 657.1 1155.2 660.1Z" fill="url(#paint120_radial_2_315)"/>
</g>
<g opacity="0.69">
<path d="M885.6 316C885.6 318.9 888 321.3 891 321.3C893.9 321.3 896.3 318.9 896.3 316C896.3 313 893.9 310.7 891 310.7C888 310.7 885.6 313 885.6 316Z" fill="url(#paint121_radial_2_315)"/>
</g>
<g opacity="0.96">
<path d="M1075.5 412.8C1075.5 415.8 1077.9 418.2 1080.8 418.2C1083.8 418.2 1086.1 415.8 1086.1 412.8C1086.1 409.9 1083.8 407.5 1080.8 407.5C1077.9 407.5 1075.5 409.9 1075.5 412.8Z" fill="url(#paint122_radial_2_315)"/>
</g>
<g opacity="0.76">
<path d="M1155 294.6C1155 297.6 1157.4 300 1160.3 300C1163.3 300 1165.7 297.6 1165.7 294.6C1165.7 291.7 1163.3 289.3 1160.3 289.3C1157.4 289.3 1155 291.7 1155 294.6Z" fill="url(#paint123_radial_2_315)"/>
</g>
<g opacity="0.93">
<path d="M1220.9 308.8C1220.9 311.8 1223.2 314.2 1226.2 314.2C1229.1 314.2 1231.5 311.8 1231.5 308.8C1231.5 305.9 1229.1 303.5 1226.2 303.5C1223.2 303.5 1220.9 305.9 1220.9 308.8Z" fill="url(#paint124_radial_2_315)"/>
</g>
<g opacity="0.49">
<path d="M1200.4 183.7C1200.4 186.6 1202.8 189 1205.8 189C1208.7 189 1211.1 186.6 1211.1 183.7C1211.1 180.7 1208.7 178.3 1205.8 178.3C1202.8 178.3 1200.4 180.7 1200.4 183.7Z" fill="url(#paint125_radial_2_315)"/>
</g>
<g opacity="0.95">
<path d="M1307.3 67C1307.3 69.9 1309.6 72.3 1312.6 72.3C1315.5 72.3 1317.9 69.9 1317.9 67C1317.9 64 1315.5 61.6 1312.6 61.6C1309.6 61.6 1307.3 64 1307.3 67Z" fill="url(#paint126_radial_2_315)"/>
</g>
<g opacity="0.67">
<path d="M1318.6 419.9C1318.6 422.8 1321 425.2 1324 425.2C1326.9 425.2 1329.3 422.8 1329.3 419.9C1329.3 416.9 1326.9 414.5 1324 414.5C1321 414.5 1318.6 416.9 1318.6 419.9Z" fill="url(#paint127_radial_2_315)"/>
</g>
<g opacity="0.69">
<path d="M1260.4 103C1260.4 106 1262.8 108.4 1265.8 108.4C1268.7 108.4 1271.1 106 1271.1 103C1271.1 100.1 1268.7 97.7 1265.8 97.7C1262.8 97.7 1260.4 100.1 1260.4 103Z" fill="url(#paint128_radial_2_315)"/>
</g>
<g opacity="0.55">
<path d="M1270 897.9C1270 900.8 1272.4 903.2 1275.3 903.2C1278.3 903.2 1280.7 900.8 1280.7 897.9C1280.7 894.9 1278.3 892.5 1275.3 892.5C1272.4 892.5 1270 894.9 1270 897.9Z" fill="url(#paint129_radial_2_315)"/>
</g>
<g opacity="0.45">
<path d="M1268 578.6C1268 581.5 1270.4 583.9 1273.3 583.9C1276.3 583.9 1278.7 581.5 1278.7 578.6C1278.7 575.7 1276.3 573.3 1273.3 573.3C1270.4 573.3 1268 575.7 1268 578.6Z" fill="url(#paint130_radial_2_315)"/>
</g>
<g opacity="0.64">
<path d="M1343.2 848C1343.2 850.9 1345.6 853.3 1348.5 853.3C1351.5 853.3 1353.9 850.9 1353.9 848C1353.9 845 1351.5 842.6 1348.5 842.6C1345.6 842.6 1343.2 845 1343.2 848Z" fill="url(#paint131_radial_2_315)"/>
</g>
<g opacity="0.88">
<path d="M1349.7 743C1349.7 745.9 1352.1 748.3 1355.1 748.3C1358 748.3 1360.4 745.9 1360.4 743C1360.4 740 1358 737.6 1355.1 737.6C1352.1 737.6 1349.7 740 1349.7 743Z" fill="url(#paint132_radial_2_315)"/>
</g>
<g opacity="0.76">
<path d="M1279.3 664.6C1279.3 667.5 1281.6 669.9 1284.6 669.9C1287.5 669.9 1289.9 667.5 1289.9 664.6C1289.9 661.6 1287.5 659.3 1284.6 659.3C1281.6 659.3 1279.3 661.6 1279.3 664.6Z" fill="url(#paint133_radial_2_315)"/>
</g>
<g opacity="0.62">
<path d="M1347.6 874.2C1347.6 877.2 1350 879.6 1352.9 879.6C1355.9 879.6 1358.3 877.2 1358.3 874.2C1358.3 871.3 1355.9 868.9 1352.9 868.9C1350 868.9 1347.6 871.3 1347.6 874.2Z" fill="url(#paint134_radial_2_315)"/>
</g>
<g opacity="0.61">
<path d="M1331.8 583.2C1331.8 586.2 1334.2 588.5 1337.1 588.5C1340.1 588.5 1342.5 586.2 1342.5 583.2C1342.5 580.3 1340.1 577.9 1337.1 577.9C1334.2 577.9 1331.8 580.3 1331.8 583.2Z" fill="url(#paint135_radial_2_315)"/>
</g>
<g opacity="0.67">
<path d="M1366.6 506.2C1366.6 509.1 1369 511.5 1371.9 511.5C1374.9 511.5 1377.2 509.1 1377.2 506.2C1377.2 503.2 1374.9 500.8 1371.9 500.8C1369 500.8 1366.6 503.2 1366.6 506.2Z" fill="url(#paint136_radial_2_315)"/>
</g>
<g opacity="0.64">
<path d="M1228.1 222.7C1228.1 225.6 1230.5 228 1233.4 228C1236.4 228 1238.7 225.6 1238.7 222.7C1238.7 219.7 1236.4 217.3 1233.4 217.3C1230.5 217.3 1228.1 219.7 1228.1 222.7Z" fill="url(#paint137_radial_2_315)"/>
</g>
<path d="M1383.6 250.7C1383.6 253.7 1386 256 1389 256C1391.9 256 1394.3 253.7 1394.3 250.7C1394.3 247.8 1391.9 245.4 1389 245.4C1386 245.4 1383.6 247.8 1383.6 250.7Z" fill="url(#paint138_radial_2_315)"/>
<path d="M1342.7 260.2C1342.7 263.2 1345.1 265.5 1348 265.5C1351 265.5 1353.4 263.2 1353.4 260.2C1353.4 257.3 1351 254.9 1348 254.9C1345.1 254.9 1342.7 257.3 1342.7 260.2Z" fill="url(#paint139_radial_2_315)"/>
<g opacity="0.99">
<path d="M1329.8 346C1329.8 349 1332.2 351.3 1335.1 351.3C1338.1 351.3 1340.5 349 1340.5 346C1340.5 343.1 1338.1 340.7 1335.1 340.7C1332.2 340.7 1329.8 343.1 1329.8 346Z" fill="url(#paint140_radial_2_315)"/>
</g>
<g opacity="0.68">
<path d="M1303.4 404.4C1303.4 407.3 1305.8 409.7 1308.8 409.7C1311.7 409.7 1314.1 407.3 1314.1 404.4C1314.1 401.5 1311.7 399.1 1308.8 399.1C1305.8 399.1 1303.4 401.5 1303.4 404.4Z" fill="url(#paint141_radial_2_315)"/>
</g>
<g opacity="0.51">
<path d="M1243.3 605.1C1243.3 608.1 1245.7 610.4 1248.6 610.4C1251.5 610.4 1253.9 608.1 1253.9 605.1C1253.9 602.2 1251.5 599.8 1248.6 599.8C1245.7 599.8 1243.3 602.2 1243.3 605.1Z" fill="url(#paint142_radial_2_315)"/>
</g>
<path d="M1375.8 331.7C1375.8 334.7 1378.2 337.1 1381.2 337.1C1384.1 337.1 1386.5 334.7 1386.5 331.7C1386.5 328.8 1384.1 326.4 1381.2 326.4C1378.2 326.4 1375.8 328.8 1375.8 331.7Z" fill="url(#paint143_radial_2_315)"/>
<path d="M1352.3 201.9C1352.3 204.9 1354.6 207.2 1357.6 207.2C1360.5 207.2 1362.9 204.9 1362.9 201.9C1362.9 199 1360.5 196.6 1357.6 196.6C1354.6 196.6 1352.3 199 1352.3 201.9Z" fill="url(#paint144_radial_2_315)"/>
<g opacity="0.78">
<path d="M1226.9 267.9C1226.9 270.9 1229.3 273.3 1232.2 273.3C1235.2 273.3 1237.6 270.9 1237.6 267.9C1237.6 265 1235.2 262.6 1232.2 262.6C1229.3 262.6 1226.9 265 1226.9 267.9Z" fill="url(#paint145_radial_2_315)"/>
</g>
<g opacity="0.4">
<path d="M1233.6 473.9C1233.6 476.9 1235.9 479.2 1238.9 479.2C1241.8 479.2 1244.2 476.9 1244.2 473.9C1244.2 471 1241.8 468.6 1238.9 468.6C1235.9 468.6 1233.6 471 1233.6 473.9Z" fill="url(#paint146_radial_2_315)"/>
</g>
<path d="M1344.3 130.4C1344.3 133.4 1346.6 135.7 1349.6 135.7C1352.5 135.7 1354.9 133.4 1354.9 130.4C1354.9 127.5 1352.5 125.1 1349.6 125.1C1346.6 125.1 1344.3 127.5 1344.3 130.4Z" fill="url(#paint147_radial_2_315)"/>
<g opacity="0.5">
<path d="M1188.9 587.9C1188.9 590.9 1191.2 593.3 1194.2 593.3C1197.1 593.3 1199.5 590.9 1199.5 587.9C1199.5 585 1197.1 582.6 1194.2 582.6C1191.2 582.6 1188.9 585 1188.9 587.9Z" fill="url(#paint148_radial_2_315)"/>
</g>
<g opacity="0.82">
<path d="M1043.4 436.6C1043.4 439.6 1045.8 442 1048.8 442C1051.7 442 1054.1 439.6 1054.1 436.6C1054.1 433.7 1051.7 431.3 1048.8 431.3C1045.8 431.3 1043.4 433.7 1043.4 436.6Z" fill="url(#paint149_radial_2_315)"/>
</g>
<g opacity="0.93">
<path d="M1008.1 297.9C1008.1 300.9 1010.5 303.2 1013.5 303.2C1016.4 303.2 1018.8 300.9 1018.8 297.9C1018.8 295 1016.4 292.6 1013.5 292.6C1010.5 292.6 1008.1 295 1008.1 297.9Z" fill="url(#paint150_radial_2_315)"/>
</g>
<g opacity="0.9">
<path d="M1023.4 293C1023.4 296 1025.8 298.4 1028.8 298.4C1031.7 298.4 1034.1 296 1034.1 293C1034.1 290.1 1031.7 287.7 1028.8 287.7C1025.8 287.7 1023.4 290.1 1023.4 293Z" fill="url(#paint151_radial_2_315)"/>
</g>
<g opacity="0.36">
<path d="M1110.7 162.1C1110.7 165 1113.1 167.4 1116.1 167.4C1119 167.4 1121.4 165 1121.4 162.1C1121.4 159.2 1119 156.8 1116.1 156.8C1113.1 156.8 1110.7 159.2 1110.7 162.1Z" fill="url(#paint152_radial_2_315)"/>
</g>
<path d="M1136.2 713.9C1136.2 716.8 1138.6 719.2 1141.6 719.2C1144.5 719.2 1146.9 716.8 1146.9 713.9C1146.9 710.9 1144.5 708.5 1141.6 708.5C1138.6 708.5 1136.2 710.9 1136.2 713.9Z" fill="url(#paint153_radial_2_315)"/>
<g opacity="0.93">
<path d="M1248.2 716.5C1248.2 719.4 1250.5 721.8 1253.5 721.8C1256.4 721.8 1258.8 719.4 1258.8 716.5C1258.8 713.5 1256.4 711.1 1253.5 711.1C1250.5 711.1 1248.2 713.5 1248.2 716.5Z" fill="url(#paint154_radial_2_315)"/>
</g>
<g opacity="0.65">
<path d="M1017.3 506.7C1017.3 509.7 1019.7 512.1 1022.7 512.1C1025.6 512.1 1028 509.7 1028 506.7C1028 503.8 1025.6 501.4 1022.7 501.4C1019.7 501.4 1017.3 503.8 1017.3 506.7Z" fill="url(#paint155_radial_2_315)"/>
</g>
<g opacity="0.75">
<path d="M903.9 271.3C903.9 274.3 906.3 276.7 909.2 276.7C912.2 276.7 914.6 274.3 914.6 271.3C914.6 268.4 912.2 266 909.2 266C906.3 266 903.9 268.4 903.9 271.3Z" fill="url(#paint156_radial_2_315)"/>
</g>
<g opacity="0.76">
<path d="M903.8 236.3C903.8 239.3 906.1 241.7 909.1 241.7C912 241.7 914.4 239.3 914.4 236.3C914.4 233.4 912 231 909.1 231C906.1 231 903.8 233.4 903.8 236.3Z" fill="url(#paint157_radial_2_315)"/>
</g>
<g opacity="0.92">
<path d="M1053 413.4C1053 416.4 1055.4 418.7 1058.4 418.7C1061.3 418.7 1063.7 416.4 1063.7 413.4C1063.7 410.5 1061.3 408.1 1058.4 408.1C1055.4 408.1 1053 410.5 1053 413.4Z" fill="url(#paint158_radial_2_315)"/>
</g>
<g opacity="0.68">
<path d="M984.2 603.4C984.2 606.3 986.6 608.7 989.5 608.7C992.5 608.7 994.9 606.3 994.9 603.4C994.9 600.4 992.5 598.1 989.5 598.1C986.6 598.1 984.2 600.4 984.2 603.4Z" fill="url(#paint159_radial_2_315)"/>
</g>
<g opacity="0.4">
<path d="M906 560.4C906 563.4 908.4 565.8 911.3 565.8C914.3 565.8 916.7 563.4 916.7 560.4C916.7 557.5 914.3 555.1 911.3 555.1C908.4 555.1 906 557.5 906 560.4Z" fill="url(#paint160_radial_2_315)"/>
</g>
<g opacity="0.76">
<path d="M1053.6 545.5C1053.6 548.4 1056 550.8 1058.9 550.8C1061.9 550.8 1064.3 548.4 1064.3 545.5C1064.3 542.5 1061.9 540.1 1058.9 540.1C1056 540.1 1053.6 542.5 1053.6 545.5Z" fill="url(#paint161_radial_2_315)"/>
</g>
<g opacity="0.81">
<path d="M1279.2 758.8C1279.2 761.8 1281.6 764.2 1284.5 764.2C1287.5 764.2 1289.9 761.8 1289.9 758.8C1289.9 755.9 1287.5 753.5 1284.5 753.5C1281.6 753.5 1279.2 755.9 1279.2 758.8Z" fill="url(#paint162_radial_2_315)"/>
</g>
<g opacity="0.35">
<path d="M1220.4 499.1C1220.4 502.1 1222.7 504.5 1225.7 504.5C1228.6 504.5 1231 502.1 1231 499.1C1231 496.2 1228.6 493.8 1225.7 493.8C1222.7 493.8 1220.4 496.2 1220.4 499.1Z" fill="url(#paint163_radial_2_315)"/>
</g>
<path d="M1260.2 302.1C1260.2 305.1 1262.5 307.4 1265.5 307.4C1268.4 307.4 1270.8 305.1 1270.8 302.1C1270.8 299.2 1268.4 296.8 1265.5 296.8C1262.5 296.8 1260.2 299.2 1260.2 302.1Z" fill="url(#paint164_radial_2_315)"/>
<g opacity="0.55">
<path d="M1333.4 537.6C1333.4 540.5 1335.8 542.9 1338.7 542.9C1341.7 542.9 1344.1 540.5 1344.1 537.6C1344.1 534.6 1341.7 532.2 1338.7 532.2C1335.8 532.2 1333.4 534.6 1333.4 537.6Z" fill="url(#paint165_radial_2_315)"/>
</g>
<g opacity="0.85">
<path d="M1379.8 613.2C1379.8 616.2 1382.2 618.6 1385.2 618.6C1388.1 618.6 1390.5 616.2 1390.5 613.2C1390.5 610.3 1388.1 607.9 1385.2 607.9C1382.2 607.9 1379.8 610.3 1379.8 613.2Z" fill="url(#paint166_radial_2_315)"/>
</g>
</g>
</g>
</g>
<defs>
<linearGradient id="paint0_linear_2_315" x1="368087" y1="22295.4" x2="-2.24281e+06" y2="22295.4" gradientUnits="userSpaceOnUse">
<stop stop-color="#4BF2F2"/>
<stop offset="1" stop-color="#133D3D" stop-opacity="0"/>
</linearGradient>
<linearGradient id="paint1_linear_2_315" x1="240604" y1="18236.9" x2="-1.55073e+06" y2="18236.9" gradientUnits="userSpaceOnUse">
<stop stop-color="#4BF2F2"/>
<stop offset="1" stop-color="#133D3D" stop-opacity="0"/>
</linearGradient>
<linearGradient id="paint2_linear_2_315" x1="259024" y1="61789.5" x2="-1.46085e+06" y2="61789.5" gradientUnits="userSpaceOnUse">
<stop stop-color="#4BF2F2"/>
<stop offset="1" stop-color="#133D3D" stop-opacity="0"/>
</linearGradient>
<linearGradient id="paint3_linear_2_315" x1="294240" y1="135652" x2="-1.92165e+06" y2="135652" gradientUnits="userSpaceOnUse">
<stop stop-color="#4BF2F2"/>
<stop offset="1" stop-color="#133D3D" stop-opacity="0"/>
</linearGradient>
<linearGradient id="paint4_linear_2_315" x1="513797" y1="113270" x2="-2.08927e+06" y2="113270" gradientUnits="userSpaceOnUse">
<stop stop-color="#4BF2F2"/>
<stop offset="1" stop-color="#133D3D" stop-opacity="0"/>
</linearGradient>
<linearGradient id="paint5_linear_2_315" x1="496265" y1="123526" x2="-1.78817e+06" y2="123526" gradientUnits="userSpaceOnUse">
<stop stop-color="#4BF2F2"/>
<stop offset="1" stop-color="#133D3D" stop-opacity="0"/>
</linearGradient>
<linearGradient id="paint6_linear_2_315" x1="163329" y1="172139" x2="-1.66254e+06" y2="172139" gradientUnits="userSpaceOnUse">
<stop stop-color="#4BF2F2"/>
<stop offset="1" stop-color="#133D3D" stop-opacity="0"/>
</linearGradient>
<linearGradient id="paint7_linear_2_315" x1="326055" y1="107236" x2="-1.88093e+06" y2="107236" gradientUnits="userSpaceOnUse">
<stop stop-color="#4BF2F2"/>
<stop offset="1" stop-color="#133D3D" stop-opacity="0"/>
</linearGradient>
<linearGradient id="paint8_linear_2_315" x1="434895" y1="49217.2" x2="-2.21388e+06" y2="49217.2" gradientUnits="userSpaceOnUse">
<stop stop-color="#4BF2F2"/>
<stop offset="1" stop-color="#133D3D" stop-opacity="0"/>
</linearGradient>
<linearGradient id="paint9_linear_2_315" x1="272032" y1="61332.1" x2="-1.83316e+06" y2="61332.1" gradientUnits="userSpaceOnUse">
<stop stop-color="#4BF2F2"/>
<stop offset="1" stop-color="#133D3D" stop-opacity="0"/>
</linearGradient>
<linearGradient id="paint10_linear_2_315" x1="395983" y1="202468" x2="-2.05877e+06" y2="202468" gradientUnits="userSpaceOnUse">
<stop stop-color="#4BF2F2"/>
<stop offset="1" stop-color="#133D3D" stop-opacity="0"/>
</linearGradient>
<linearGradient id="paint11_linear_2_315" x1="426990" y1="95720.4" x2="-2.09739e+06" y2="95720.4" gradientUnits="userSpaceOnUse">
<stop stop-color="#4BF2F2"/>
<stop offset="1" stop-color="#133D3D" stop-opacity="0"/>
</linearGradient>
<linearGradient id="paint12_linear_2_315" x1="575765" y1="55275.5" x2="-2.28142e+06" y2="55275.5" gradientUnits="userSpaceOnUse">
<stop stop-color="#4BF2F2"/>
<stop offset="1" stop-color="#133D3D" stop-opacity="0"/>
</linearGradient>
<linearGradient id="paint13_linear_2_315" x1="408025" y1="70201" x2="-1.81745e+06" y2="70201" gradientUnits="userSpaceOnUse">
<stop stop-color="#4BF2F2"/>
<stop offset="1" stop-color="#133D3D" stop-opacity="0"/>
</linearGradient>
<linearGradient id="paint14_linear_2_315" x1="373422" y1="107387" x2="-1.91818e+06" y2="107387" gradientUnits="userSpaceOnUse">
<stop stop-color="#4BF2F2"/>
<stop offset="1" stop-color="#133D3D" stop-opacity="0"/>
</linearGradient>
<linearGradient id="paint15_linear_2_315" x1="450752" y1="182605" x2="-2.01496e+06" y2="182605" gradientUnits="userSpaceOnUse">
<stop stop-color="#4BF2F2"/>
<stop offset="1" stop-color="#133D3D" stop-opacity="0"/>
</linearGradient>
<linearGradient id="paint16_linear_2_315" x1="375742" y1="108418" x2="-1.74139e+06" y2="108418" gradientUnits="userSpaceOnUse">
<stop stop-color="#4BF2F2"/>
<stop offset="1" stop-color="#133D3D" stop-opacity="0"/>
</linearGradient>
<linearGradient id="paint17_linear_2_315" x1="325224" y1="133916" x2="-1.70889e+06" y2="133916" gradientUnits="userSpaceOnUse">
<stop stop-color="#4BF2F2"/>
<stop offset="1" stop-color="#133D3D" stop-opacity="0"/>
</linearGradient>
<linearGradient id="paint18_linear_2_315" x1="348186" y1="36597.1" x2="-2.08254e+06" y2="36597.1" gradientUnits="userSpaceOnUse">
<stop stop-color="#4BF2F2"/>
<stop offset="1" stop-color="#133D3D" stop-opacity="0"/>
</linearGradient>
<linearGradient id="paint19_linear_2_315" x1="661052" y1="143107" x2="-1.96141e+06" y2="143107" gradientUnits="userSpaceOnUse">
<stop stop-color="#4BF2F2"/>
<stop offset="1" stop-color="#133D3D" stop-opacity="0"/>
</linearGradient>
<linearGradient id="paint20_linear_2_315" x1="330858" y1="48293" x2="-1.85301e+06" y2="48293" gradientUnits="userSpaceOnUse">
<stop stop-color="#4BF2F2"/>
<stop offset="1" stop-color="#133D3D" stop-opacity="0"/>
</linearGradient>
<linearGradient id="paint21_linear_2_315" x1="680939" y1="-35511.2" x2="-2.15351e+06" y2="-35511.2" gradientUnits="userSpaceOnUse">
<stop stop-color="#4BF2F2"/>
<stop offset="1" stop-color="#133D3D" stop-opacity="0"/>
</linearGradient>
<linearGradient id="paint22_linear_2_315" x1="318874" y1="231262" x2="-1.65366e+06" y2="231262" gradientUnits="userSpaceOnUse">
<stop stop-color="#4BF2F2"/>
<stop offset="1" stop-color="#133D3D" stop-opacity="0"/>
</linearGradient>
<linearGradient id="paint23_linear_2_315" x1="280284" y1="30593" x2="-1.48417e+06" y2="30593" gradientUnits="userSpaceOnUse">
<stop stop-color="#4BF2F2"/>
<stop offset="1" stop-color="#133D3D" stop-opacity="0"/>
</linearGradient>
<linearGradient id="paint24_linear_2_315" x1="394595" y1="40002.4" x2="-1.3698e+06" y2="40002.4" gradientUnits="userSpaceOnUse">
<stop stop-color="#4BF2F2"/>
<stop offset="1" stop-color="#133D3D" stop-opacity="0"/>
</linearGradient>
<linearGradient id="paint25_linear_2_315" x1="257481" y1="69174.1" x2="-1.38292e+06" y2="69174.1" gradientUnits="userSpaceOnUse">
<stop stop-color="#4BF2F2"/>
<stop offset="1" stop-color="#133D3D" stop-opacity="0"/>
</linearGradient>
<linearGradient id="paint26_linear_2_315" x1="184840" y1="192872" x2="-1.45613e+06" y2="192872" gradientUnits="userSpaceOnUse">
<stop stop-color="#4BF2F2"/>
<stop offset="1" stop-color="#133D3D" stop-opacity="0"/>
</linearGradient>
<linearGradient id="paint27_linear_2_315" x1="368087" y1="172902" x2="-2.24281e+06" y2="172902" gradientUnits="userSpaceOnUse">
<stop stop-color="#4BF2F2"/>
<stop offset="1" stop-color="#133D3D" stop-opacity="0"/>
</linearGradient>
<linearGradient id="paint28_linear_2_315" x1="240604" y1="81933.2" x2="-1.55073e+06" y2="81933.2" gradientUnits="userSpaceOnUse">
<stop stop-color="#4BF2F2"/>
<stop offset="1" stop-color="#133D3D" stop-opacity="0"/>
</linearGradient>
<linearGradient id="paint29_linear_2_315" x1="259024" y1="129469" x2="-1.46085e+06" y2="129469" gradientUnits="userSpaceOnUse">
<stop stop-color="#4BF2F2"/>
<stop offset="1" stop-color="#133D3D" stop-opacity="0"/>
</linearGradient>
<linearGradient id="paint30_linear_2_315" x1="294240" y1="70020.4" x2="-1.92165e+06" y2="70020.4" gradientUnits="userSpaceOnUse">
<stop stop-color="#4BF2F2"/>
<stop offset="1" stop-color="#133D3D" stop-opacity="0"/>
</linearGradient>
<linearGradient id="paint31_linear_2_315" x1="513797" y1="100143" x2="-2.08927e+06" y2="100143" gradientUnits="userSpaceOnUse">
<stop stop-color="#4BF2F2"/>
<stop offset="1" stop-color="#133D3D" stop-opacity="0"/>
</linearGradient>
<linearGradient id="paint32_linear_2_315" x1="496265" y1="49095.6" x2="-1.78817e+06" y2="49095.6" gradientUnits="userSpaceOnUse">
<stop stop-color="#4BF2F2"/>
<stop offset="1" stop-color="#133D3D" stop-opacity="0"/>
</linearGradient>
<linearGradient id="paint33_linear_2_315" x1="163329" y1="20316.8" x2="-1.66254e+06" y2="20316.8" gradientUnits="userSpaceOnUse">
<stop stop-color="#4BF2F2"/>
<stop offset="1" stop-color="#133D3D" stop-opacity="0"/>
</linearGradient>
<linearGradient id="paint34_linear_2_315" x1="326055" y1="96088.1" x2="-1.88093e+06" y2="96088.1" gradientUnits="userSpaceOnUse">
<stop stop-color="#4BF2F2"/>
<stop offset="1" stop-color="#133D3D" stop-opacity="0"/>
</linearGradient>
<linearGradient id="paint35_linear_2_315" x1="434895" y1="150764" x2="-2.21388e+06" y2="150764" gradientUnits="userSpaceOnUse">
<stop stop-color="#4BF2F2"/>
<stop offset="1" stop-color="#133D3D" stop-opacity="0"/>
</linearGradient>
<linearGradient id="paint36_linear_2_315" x1="272032" y1="57176.8" x2="-1.83316e+06" y2="57176.8" gradientUnits="userSpaceOnUse">
<stop stop-color="#4BF2F2"/>
<stop offset="1" stop-color="#133D3D" stop-opacity="0"/>
</linearGradient>
<linearGradient id="paint37_linear_2_315" x1="395983" y1="-1.01455" x2="-2.05877e+06" y2="-1.01455" gradientUnits="userSpaceOnUse">
<stop stop-color="#4BF2F2"/>
<stop offset="1" stop-color="#133D3D" stop-opacity="0"/>
</linearGradient>
<linearGradient id="paint38_linear_2_315" x1="426990" y1="45461.1" x2="-2.09739e+06" y2="45461.1" gradientUnits="userSpaceOnUse">
<stop stop-color="#4BF2F2"/>
<stop offset="1" stop-color="#133D3D" stop-opacity="0"/>
</linearGradient>
<linearGradient id="paint39_linear_2_315" x1="575765" y1="157481" x2="-2.28142e+06" y2="157481" gradientUnits="userSpaceOnUse">
<stop stop-color="#4BF2F2"/>
<stop offset="1" stop-color="#133D3D" stop-opacity="0"/>
</linearGradient>
<linearGradient id="paint40_linear_2_315" x1="408025" y1="104095" x2="-1.81745e+06" y2="104095" gradientUnits="userSpaceOnUse">
<stop stop-color="#4BF2F2"/>
<stop offset="1" stop-color="#133D3D" stop-opacity="0"/>
</linearGradient>
<linearGradient id="paint41_linear_2_315" x1="373422" y1="47767.9" x2="-1.91818e+06" y2="47767.9" gradientUnits="userSpaceOnUse">
<stop stop-color="#4BF2F2"/>
<stop offset="1" stop-color="#133D3D" stop-opacity="0"/>
</linearGradient>
<linearGradient id="paint42_linear_2_315" x1="450752" y1="32228.3" x2="-2.01496e+06" y2="32228.3" gradientUnits="userSpaceOnUse">
<stop stop-color="#4BF2F2"/>
<stop offset="1" stop-color="#133D3D" stop-opacity="0"/>
</linearGradient>
<linearGradient id="paint43_linear_2_315" x1="375742" y1="98030.5" x2="-1.74139e+06" y2="98030.5" gradientUnits="userSpaceOnUse">
<stop stop-color="#4BF2F2"/>
<stop offset="1" stop-color="#133D3D" stop-opacity="0"/>
</linearGradient>
<linearGradient id="paint44_linear_2_315" x1="325224" y1="65007.3" x2="-1.70889e+06" y2="65007.3" gradientUnits="userSpaceOnUse">
<stop stop-color="#4BF2F2"/>
<stop offset="1" stop-color="#133D3D" stop-opacity="0"/>
</linearGradient>
<linearGradient id="paint45_linear_2_315" x1="348186" y1="107419" x2="-2.08254e+06" y2="107419" gradientUnits="userSpaceOnUse">
<stop stop-color="#4BF2F2"/>
<stop offset="1" stop-color="#133D3D" stop-opacity="0"/>
</linearGradient>
<linearGradient id="paint46_linear_2_315" x1="661052" y1="71997.8" x2="-1.96141e+06" y2="71997.8" gradientUnits="userSpaceOnUse">
<stop stop-color="#4BF2F2"/>
<stop offset="1" stop-color="#133D3D" stop-opacity="0"/>
</linearGradient>
<linearGradient id="paint47_linear_2_315" x1="330858" y1="73107.3" x2="-1.85301e+06" y2="73107.3" gradientUnits="userSpaceOnUse">
<stop stop-color="#4BF2F2"/>
<stop offset="1" stop-color="#133D3D" stop-opacity="0"/>
</linearGradient>
<linearGradient id="paint48_linear_2_315" x1="680939" y1="250562" x2="-2.15351e+06" y2="250562" gradientUnits="userSpaceOnUse">
<stop stop-color="#4BF2F2"/>
<stop offset="1" stop-color="#133D3D" stop-opacity="0"/>
</linearGradient>
<linearGradient id="paint49_linear_2_315" x1="318874" y1="-51610.4" x2="-1.65366e+06" y2="-51610.4" gradientUnits="userSpaceOnUse">
<stop stop-color="#4BF2F2"/>
<stop offset="1" stop-color="#133D3D" stop-opacity="0"/>
</linearGradient>
<linearGradient id="paint50_linear_2_315" x1="280284" y1="34766.6" x2="-1.48417e+06" y2="34766.6" gradientUnits="userSpaceOnUse">
<stop stop-color="#4BF2F2"/>
<stop offset="1" stop-color="#133D3D" stop-opacity="0"/>
</linearGradient>
<linearGradient id="paint51_linear_2_315" x1="394595" y1="113623" x2="-1.3698e+06" y2="113623" gradientUnits="userSpaceOnUse">
<stop stop-color="#4BF2F2"/>
<stop offset="1" stop-color="#133D3D" stop-opacity="0"/>
</linearGradient>
<linearGradient id="paint52_linear_2_315" x1="257481" y1="66413.4" x2="-1.38292e+06" y2="66413.4" gradientUnits="userSpaceOnUse">
<stop stop-color="#4BF2F2"/>
<stop offset="1" stop-color="#133D3D" stop-opacity="0"/>
</linearGradient>
<linearGradient id="paint53_linear_2_315" x1="184840" y1="22228.4" x2="-1.45613e+06" y2="22228.4" gradientUnits="userSpaceOnUse">
<stop stop-color="#4BF2F2"/>
<stop offset="1" stop-color="#133D3D" stop-opacity="0"/>
</linearGradient>
<radialGradient id="paint54_radial_2_315" cx="0" cy="0" r="1" gradientUnits="userSpaceOnUse" gradientTransform="translate(-6371.23 2100.31) rotate(180) scale(56.5297 57.0632)">
<stop stop-color="#4BF2F2"/>
<stop offset="1" stop-color="#133D3D" stop-opacity="0"/>
</radialGradient>
<radialGradient id="paint55_radial_2_315" cx="0" cy="0" r="1" gradientUnits="userSpaceOnUse" gradientTransform="translate(-6310.44 3134.43) rotate(180) scale(56.5297 56.5298)">
<stop stop-color="#4BF2F2"/>
<stop offset="1" stop-color="#133D3D" stop-opacity="0"/>
</radialGradient>
<radialGradient id="paint56_radial_2_315" cx="0" cy="0" r="1" gradientUnits="userSpaceOnUse" gradientTransform="translate(-5922.87 4278.24) rotate(180) scale(56.5297 57.0632)">
<stop stop-color="#4BF2F2"/>
<stop offset="1" stop-color="#133D3D" stop-opacity="0"/>
</radialGradient>
<radialGradient id="paint57_radial_2_315" cx="0" cy="0" r="1" gradientUnits="userSpaceOnUse" gradientTransform="translate(-5750.03 3757.04) rotate(180) scale(57.0628)">
<stop stop-color="#4BF2F2"/>
<stop offset="1" stop-color="#133D3D" stop-opacity="0"/>
</radialGradient>
<radialGradient id="paint58_radial_2_315" cx="0" cy="0" r="1" gradientUnits="userSpaceOnUse" gradientTransform="translate(-5333.28 2387.15) rotate(180) scale(57.0628 56.5298)">
<stop stop-color="#4BF2F2"/>
<stop offset="1" stop-color="#133D3D" stop-opacity="0"/>
</radialGradient>
<radialGradient id="paint59_radial_2_315" cx="0" cy="0" r="1" gradientUnits="userSpaceOnUse" gradientTransform="translate(-4740.54 2504.31) rotate(180) scale(57.0628 56.5298)">
<stop stop-color="#4BF2F2"/>
<stop offset="1" stop-color="#133D3D" stop-opacity="0"/>
</radialGradient>
<radialGradient id="paint60_radial_2_315" cx="0" cy="0" r="1" gradientUnits="userSpaceOnUse" gradientTransform="translate(-3610.79 2472.01) rotate(180) scale(57.0632 56.5298)">
<stop stop-color="#4BF2F2"/>
<stop offset="1" stop-color="#133D3D" stop-opacity="0"/>
</radialGradient>
<radialGradient id="paint61_radial_2_315" cx="0" cy="0" r="1" gradientUnits="userSpaceOnUse" gradientTransform="translate(-3287.71 2230.07) rotate(180) scale(56.5297 56.5298)">
<stop stop-color="#4BF2F2"/>
<stop offset="1" stop-color="#133D3D" stop-opacity="0"/>
</radialGradient>
<radialGradient id="paint62_radial_2_315" cx="0" cy="0" r="1" gradientUnits="userSpaceOnUse" gradientTransform="translate(-3643.64 1830.51) rotate(180) scale(56.5297 57.063)">
<stop stop-color="#4BF2F2"/>
<stop offset="1" stop-color="#133D3D" stop-opacity="0"/>
</radialGradient>
<radialGradient id="paint63_radial_2_315" cx="0" cy="0" r="1" gradientUnits="userSpaceOnUse" gradientTransform="translate(-3504.99 2974.23) rotate(180) scale(57.0632)">
<stop stop-color="#4BF2F2"/>
<stop offset="1" stop-color="#133D3D" stop-opacity="0"/>
</radialGradient>
<radialGradient id="paint64_radial_2_315" cx="0" cy="0" r="1" gradientUnits="userSpaceOnUse" gradientTransform="translate(-3712.72 3793.78) rotate(180) scale(57.0632)">
<stop stop-color="#4BF2F2"/>
<stop offset="1" stop-color="#133D3D" stop-opacity="0"/>
</radialGradient>
<radialGradient id="paint65_radial_2_315" cx="0" cy="0" r="1" gradientUnits="userSpaceOnUse" gradientTransform="translate(-3906.54 3440.94) rotate(180) scale(57.0632 56.5297)">
<stop stop-color="#4BF2F2"/>
<stop offset="1" stop-color="#133D3D" stop-opacity="0"/>
</radialGradient>
<radialGradient id="paint66_radial_2_315" cx="0" cy="0" r="1" gradientUnits="userSpaceOnUse" gradientTransform="translate(-3180.71 2003.37) rotate(180) scale(56.53 56.5298)">
<stop stop-color="#4BF2F2"/>
<stop offset="1" stop-color="#133D3D" stop-opacity="0"/>
</radialGradient>
<radialGradient id="paint67_radial_2_315" cx="0" cy="0" r="1" gradientUnits="userSpaceOnUse" gradientTransform="translate(-1928.06 1310.61) rotate(180) scale(57.0632 57.0631)">
<stop stop-color="#4BF2F2"/>
<stop offset="1" stop-color="#133D3D" stop-opacity="0"/>
</radialGradient>
<radialGradient id="paint68_radial_2_315" cx="0" cy="0" r="1" gradientUnits="userSpaceOnUse" gradientTransform="translate(-1395.42 1325.74) rotate(180) scale(56.5297 56.5298)">
<stop stop-color="#4BF2F2"/>
<stop offset="1" stop-color="#133D3D" stop-opacity="0"/>
</radialGradient>
<radialGradient id="paint69_radial_2_315" cx="0" cy="0" r="1" gradientUnits="userSpaceOnUse" gradientTransform="translate(-1892.56 2688.64) rotate(180) scale(56.5297 57.063)">
<stop stop-color="#4BF2F2"/>
<stop offset="1" stop-color="#133D3D" stop-opacity="0"/>
</radialGradient>
<radialGradient id="paint70_radial_2_315" cx="0" cy="0" r="1" gradientUnits="userSpaceOnUse" gradientTransform="translate(-1917.34 3984.99) rotate(180) scale(57.0632 57.0628)">
<stop stop-color="#4BF2F2"/>
<stop offset="1" stop-color="#133D3D" stop-opacity="0"/>
</radialGradient>
<radialGradient id="paint71_radial_2_315" cx="0" cy="0" r="1" gradientUnits="userSpaceOnUse" gradientTransform="translate(-2857.16 4263.02) rotate(180) scale(57.0632)">
<stop stop-color="#4BF2F2"/>
<stop offset="1" stop-color="#133D3D" stop-opacity="0"/>
</radialGradient>
<radialGradient id="paint72_radial_2_315" cx="0" cy="0" r="1" gradientUnits="userSpaceOnUse" gradientTransform="translate(-2607.56 5005.27) rotate(180) scale(56.53 57.0632)">
<stop stop-color="#4BF2F2"/>
<stop offset="1" stop-color="#133D3D" stop-opacity="0"/>
</radialGradient>
<radialGradient id="paint73_radial_2_315" cx="0" cy="0" r="1" gradientUnits="userSpaceOnUse" gradientTransform="translate(-1586.67 3412.51) rotate(180) scale(56.5298 57.0632)">
<stop stop-color="#4BF2F2"/>
<stop offset="1" stop-color="#133D3D" stop-opacity="0"/>
</radialGradient>
<radialGradient id="paint74_radial_2_315" cx="0" cy="0" r="1" gradientUnits="userSpaceOnUse" gradientTransform="translate(-2653.21 2714.62) rotate(180) scale(57.0632)">
<stop stop-color="#4BF2F2"/>
<stop offset="1" stop-color="#133D3D" stop-opacity="0"/>
</radialGradient>
<radialGradient id="paint75_radial_2_315" cx="0" cy="0" r="1" gradientUnits="userSpaceOnUse" gradientTransform="translate(-3466.37 2330.79) rotate(180) scale(57.0632 57.063)">
<stop stop-color="#4BF2F2"/>
<stop offset="1" stop-color="#133D3D" stop-opacity="0"/>
</radialGradient>
<radialGradient id="paint76_radial_2_315" cx="0" cy="0" r="1" gradientUnits="userSpaceOnUse" gradientTransform="translate(-2125.05 1800.73) rotate(180) scale(57.0628 57.0632)">
<stop stop-color="#4BF2F2"/>
<stop offset="1" stop-color="#133D3D" stop-opacity="0"/>
</radialGradient>
<radialGradient id="paint77_radial_2_315" cx="0" cy="0" r="1" gradientUnits="userSpaceOnUse" gradientTransform="translate(-554.396 2370.72) rotate(180) scale(56.5298 57.0632)">
<stop stop-color="#4BF2F2"/>
<stop offset="1" stop-color="#133D3D" stop-opacity="0"/>
</radialGradient>
<radialGradient id="paint78_radial_2_315" cx="0" cy="0" r="1" gradientUnits="userSpaceOnUse" gradientTransform="translate(109.898 4899.53) rotate(180) scale(57.0631 57.0632)">
<stop stop-color="#4BF2F2"/>
<stop offset="1" stop-color="#133D3D" stop-opacity="0"/>
</radialGradient>
<radialGradient id="paint79_radial_2_315" cx="0" cy="0" r="1" gradientUnits="userSpaceOnUse" gradientTransform="translate(-101.59 5228.81) rotate(180) scale(56.5298 57.0632)">
<stop stop-color="#4BF2F2"/>
<stop offset="1" stop-color="#133D3D" stop-opacity="0"/>
</radialGradient>
<radialGradient id="paint80_radial_2_315" cx="0" cy="0" r="1" gradientUnits="userSpaceOnUse" gradientTransform="translate(-1068.62 4392.85) rotate(180) scale(56.5298 57.0632)">
<stop stop-color="#4BF2F2"/>
<stop offset="1" stop-color="#133D3D" stop-opacity="0"/>
</radialGradient>
<radialGradient id="paint81_radial_2_315" cx="0" cy="0" r="1" gradientUnits="userSpaceOnUse" gradientTransform="translate(241.635 1760.19) rotate(180) scale(57.0631 57.063)">
<stop stop-color="#4BF2F2"/>
<stop offset="1" stop-color="#133D3D" stop-opacity="0"/>
</radialGradient>
<radialGradient id="paint82_radial_2_315" cx="0" cy="0" r="1" gradientUnits="userSpaceOnUse" gradientTransform="translate(441.79 204.236) rotate(180) scale(56.5298 57.0631)">
<stop stop-color="#4BF2F2"/>
<stop offset="1" stop-color="#133D3D" stop-opacity="0"/>
</radialGradient>
<radialGradient id="paint83_radial_2_315" cx="0" cy="0" r="1" gradientUnits="userSpaceOnUse" gradientTransform="translate(1024.98 2877.38) rotate(180) scale(57.0631 57.0632)">
<stop stop-color="#4BF2F2"/>
<stop offset="1" stop-color="#133D3D" stop-opacity="0"/>
</radialGradient>
<radialGradient id="paint84_radial_2_315" cx="0" cy="0" r="1" gradientUnits="userSpaceOnUse" gradientTransform="translate(458.224 4565.14) rotate(180) scale(57.0631 57.0632)">
<stop stop-color="#4BF2F2"/>
<stop offset="1" stop-color="#133D3D" stop-opacity="0"/>
</radialGradient>
<radialGradient id="paint85_radial_2_315" cx="0" cy="0" r="1" gradientUnits="userSpaceOnUse" gradientTransform="translate(1372.73 1150.3) rotate(180) scale(56.5298 56.5298)">
<stop stop-color="#4BF2F2"/>
<stop offset="1" stop-color="#133D3D" stop-opacity="0"/>
</radialGradient>
<radialGradient id="paint86_radial_2_315" cx="0" cy="0" r="1" gradientUnits="userSpaceOnUse" gradientTransform="translate(852.805 2715.87) rotate(180) scale(56.5298 57.0632)">
<stop stop-color="#4BF2F2"/>
<stop offset="1" stop-color="#133D3D" stop-opacity="0"/>
</radialGradient>
<radialGradient id="paint87_radial_2_315" cx="0" cy="0" r="1" gradientUnits="userSpaceOnUse" gradientTransform="translate(1019.3 4187.67) rotate(180) scale(57.0631 57.0628)">
<stop stop-color="#4BF2F2"/>
<stop offset="1" stop-color="#133D3D" stop-opacity="0"/>
</radialGradient>
<radialGradient id="paint88_radial_2_315" cx="0" cy="0" r="1" gradientUnits="userSpaceOnUse" gradientTransform="translate(869.206 4473.87) rotate(180) scale(57.0631 56.53)">
<stop stop-color="#4BF2F2"/>
<stop offset="1" stop-color="#133D3D" stop-opacity="0"/>
</radialGradient>
<radialGradient id="paint89_radial_2_315" cx="0" cy="0" r="1" gradientUnits="userSpaceOnUse" gradientTransform="translate(588.047 2347.92) rotate(180) scale(57.0631 57.0632)">
<stop stop-color="#4BF2F2"/>
<stop offset="1" stop-color="#133D3D" stop-opacity="0"/>
</radialGradient>
<radialGradient id="paint90_radial_2_315" cx="0" cy="0" r="1" gradientUnits="userSpaceOnUse" gradientTransform="translate(1301.14 5671.52) rotate(180) scale(57.0631 57.0632)">
<stop stop-color="#4BF2F2"/>
<stop offset="1" stop-color="#133D3D" stop-opacity="0"/>
</radialGradient>
<radialGradient id="paint91_radial_2_315" cx="0" cy="0" r="1" gradientUnits="userSpaceOnUse" gradientTransform="translate(629.875 1624.03) rotate(180) scale(56.5298 57.063)">
<stop stop-color="#4BF2F2"/>
<stop offset="1" stop-color="#133D3D" stop-opacity="0"/>
</radialGradient>
<radialGradient id="paint92_radial_2_315" cx="0" cy="0" r="1" gradientUnits="userSpaceOnUse" gradientTransform="translate(940.833 5220.61) rotate(180) scale(56.5298 57.0632)">
<stop stop-color="#4BF2F2"/>
<stop offset="1" stop-color="#133D3D" stop-opacity="0"/>
</radialGradient>
<radialGradient id="paint93_radial_2_315" cx="0" cy="0" r="1" gradientUnits="userSpaceOnUse" gradientTransform="translate(385.397 2119.97) rotate(180) scale(57.0631 57.0632)">
<stop stop-color="#4BF2F2"/>
<stop offset="1" stop-color="#133D3D" stop-opacity="0"/>
</radialGradient>
<radialGradient id="paint94_radial_2_315" cx="0" cy="0" r="1" gradientUnits="userSpaceOnUse" gradientTransform="translate(359.392 4255.4) rotate(180) scale(57.0631 57.0632)">
<stop stop-color="#4BF2F2"/>
<stop offset="1" stop-color="#133D3D" stop-opacity="0"/>
</radialGradient>
<radialGradient id="paint95_radial_2_315" cx="0" cy="0" r="1" gradientUnits="userSpaceOnUse" gradientTransform="translate(108.618 2944.48) rotate(180) scale(57.0631 57.063)">
<stop stop-color="#4BF2F2"/>
<stop offset="1" stop-color="#133D3D" stop-opacity="0"/>
</radialGradient>
<radialGradient id="paint96_radial_2_315" cx="0" cy="0" r="1" gradientUnits="userSpaceOnUse" gradientTransform="translate(-66.7956 3482.83) rotate(180) scale(57.0632)">
<stop stop-color="#4BF2F2"/>
<stop offset="1" stop-color="#133D3D" stop-opacity="0"/>
</radialGradient>
<radialGradient id="paint97_radial_2_315" cx="0" cy="0" r="1" gradientUnits="userSpaceOnUse" gradientTransform="translate(-363.79 2656.92) rotate(180) scale(56.5298 56.5297)">
<stop stop-color="#4BF2F2"/>
<stop offset="1" stop-color="#133D3D" stop-opacity="0"/>
</radialGradient>
<radialGradient id="paint98_radial_2_315" cx="0" cy="0" r="1" gradientUnits="userSpaceOnUse" gradientTransform="translate(-650.075 4226.88) rotate(180) scale(57.0632 56.53)">
<stop stop-color="#4BF2F2"/>
<stop offset="1" stop-color="#133D3D" stop-opacity="0"/>
</radialGradient>
<radialGradient id="paint99_radial_2_315" cx="0" cy="0" r="1" gradientUnits="userSpaceOnUse" gradientTransform="translate(-842.569 4939.38) rotate(180) scale(57.0632)">
<stop stop-color="#4BF2F2"/>
<stop offset="1" stop-color="#133D3D" stop-opacity="0"/>
</radialGradient>
<radialGradient id="paint100_radial_2_315" cx="0" cy="0" r="1" gradientUnits="userSpaceOnUse" gradientTransform="translate(-261.188 2929.26) rotate(180) scale(56.5298 56.5297)">
<stop stop-color="#4BF2F2"/>
<stop offset="1" stop-color="#133D3D" stop-opacity="0"/>
</radialGradient>
<radialGradient id="paint101_radial_2_315" cx="0" cy="0" r="1" gradientUnits="userSpaceOnUse" gradientTransform="translate(-395.47 1245.94) rotate(180) scale(57.0632 56.5298)">
<stop stop-color="#4BF2F2"/>
<stop offset="1" stop-color="#133D3D" stop-opacity="0"/>
</radialGradient>
<radialGradient id="paint102_radial_2_315" cx="0" cy="0" r="1" gradientUnits="userSpaceOnUse" gradientTransform="translate(-700.732 325.134) rotate(180) scale(57.0632 57.0631)">
<stop stop-color="#4BF2F2"/>
<stop offset="1" stop-color="#133D3D" stop-opacity="0"/>
</radialGradient>
<radialGradient id="paint103_radial_2_315" cx="0" cy="0" r="1" gradientUnits="userSpaceOnUse" gradientTransform="translate(-336.567 2191.51) rotate(180) scale(57.0632 57.063)">
<stop stop-color="#4BF2F2"/>
<stop offset="1" stop-color="#133D3D" stop-opacity="0"/>
</radialGradient>
<radialGradient id="paint104_radial_2_315" cx="0" cy="0" r="1" gradientUnits="userSpaceOnUse" gradientTransform="translate(-369.509 1982.46) rotate(180) scale(57.063 56.5297)">
<stop stop-color="#4BF2F2"/>
<stop offset="1" stop-color="#133D3D" stop-opacity="0"/>
</radialGradient>
<radialGradient id="paint105_radial_2_315" cx="0" cy="0" r="1" gradientUnits="userSpaceOnUse" gradientTransform="translate(-1590.56 4081.23) rotate(180) scale(57.0632 56.53)">
<stop stop-color="#4BF2F2"/>
<stop offset="1" stop-color="#133D3D" stop-opacity="0"/>
</radialGradient>
<radialGradient id="paint106_radial_2_315" cx="0" cy="0" r="1" gradientUnits="userSpaceOnUse" gradientTransform="translate(-2016.75 4895.73) rotate(180) scale(57.0632)">
<stop stop-color="#4BF2F2"/>
<stop offset="1" stop-color="#133D3D" stop-opacity="0"/>
</radialGradient>
<radialGradient id="paint107_radial_2_315" cx="0" cy="0" r="1" gradientUnits="userSpaceOnUse" gradientTransform="translate(-2295.4 4314.28) rotate(180) scale(57.0632 56.5297)">
<stop stop-color="#4BF2F2"/>
<stop offset="1" stop-color="#133D3D" stop-opacity="0"/>
</radialGradient>
<radialGradient id="paint108_radial_2_315" cx="0" cy="0" r="1" gradientUnits="userSpaceOnUse" gradientTransform="translate(-2612.02 4369.4) rotate(180) scale(57.0632 56.53)">
<stop stop-color="#4BF2F2"/>
<stop offset="1" stop-color="#133D3D" stop-opacity="0"/>
</radialGradient>
<radialGradient id="paint109_radial_2_315" cx="0" cy="0" r="1" gradientUnits="userSpaceOnUse" gradientTransform="translate(-3204.19 3985.02) rotate(180) scale(57.0632 57.0628)">
<stop stop-color="#4BF2F2"/>
<stop offset="1" stop-color="#133D3D" stop-opacity="0"/>
</radialGradient>
<radialGradient id="paint110_radial_2_315" cx="0" cy="0" r="1" gradientUnits="userSpaceOnUse" gradientTransform="translate(-3485.36 4206.05) rotate(180) scale(57.0632)">
<stop stop-color="#4BF2F2"/>
<stop offset="1" stop-color="#133D3D" stop-opacity="0"/>
</radialGradient>
<radialGradient id="paint111_radial_2_315" cx="0" cy="0" r="1" gradientUnits="userSpaceOnUse" gradientTransform="translate(-4668.31 3164.86) rotate(180) scale(56.5297 57.0632)">
<stop stop-color="#4BF2F2"/>
<stop offset="1" stop-color="#133D3D" stop-opacity="0"/>
</radialGradient>
<radialGradient id="paint112_radial_2_315" cx="0" cy="0" r="1" gradientUnits="userSpaceOnUse" gradientTransform="translate(-5551.15 3468.82) rotate(180) scale(57.0628 56.5297)">
<stop stop-color="#4BF2F2"/>
<stop offset="1" stop-color="#133D3D" stop-opacity="0"/>
</radialGradient>
<radialGradient id="paint113_radial_2_315" cx="0" cy="0" r="1" gradientUnits="userSpaceOnUse" gradientTransform="translate(-6126.26 2500.54) rotate(180) scale(57.0635 57.0632)">
<stop stop-color="#4BF2F2"/>
<stop offset="1" stop-color="#133D3D" stop-opacity="0"/>
</radialGradient>
<radialGradient id="paint114_radial_2_315" cx="0" cy="0" r="1" gradientUnits="userSpaceOnUse" gradientTransform="translate(-7045.13 2988.13) rotate(180) scale(57.0628 56.5298)">
<stop stop-color="#4BF2F2"/>
<stop offset="1" stop-color="#133D3D" stop-opacity="0"/>
</radialGradient>
<radialGradient id="paint115_radial_2_315" cx="0" cy="0" r="1" gradientUnits="userSpaceOnUse" gradientTransform="translate(-1944.47 3235.79) rotate(180) scale(56.5297 57.063)">
<stop stop-color="#4BF2F2"/>
<stop offset="1" stop-color="#133D3D" stop-opacity="0"/>
</radialGradient>
<radialGradient id="paint116_radial_2_315" cx="0" cy="0" r="1" gradientUnits="userSpaceOnUse" gradientTransform="translate(-2957.18 1124.33) rotate(180) scale(57.0632 56.5298)">
<stop stop-color="#4BF2F2"/>
<stop offset="1" stop-color="#133D3D" stop-opacity="0"/>
</radialGradient>
<radialGradient id="paint117_radial_2_315" cx="0" cy="0" r="1" gradientUnits="userSpaceOnUse" gradientTransform="translate(-2964.76 2443.54) rotate(180) scale(57.0632)">
<stop stop-color="#4BF2F2"/>
<stop offset="1" stop-color="#133D3D" stop-opacity="0"/>
</radialGradient>
<radialGradient id="paint118_radial_2_315" cx="0" cy="0" r="1" gradientUnits="userSpaceOnUse" gradientTransform="translate(-2195.33 3345.31) rotate(180) scale(57.0632 56.5297)">
<stop stop-color="#4BF2F2"/>
<stop offset="1" stop-color="#133D3D" stop-opacity="0"/>
</radialGradient>
<radialGradient id="paint119_radial_2_315" cx="0" cy="0" r="1" gradientUnits="userSpaceOnUse" gradientTransform="translate(-1820.45 1811.51) rotate(180) scale(57.0632 57.063)">
<stop stop-color="#4BF2F2"/>
<stop offset="1" stop-color="#133D3D" stop-opacity="0"/>
</radialGradient>
<radialGradient id="paint120_radial_2_315" cx="0" cy="0" r="1" gradientUnits="userSpaceOnUse" gradientTransform="translate(-7.92411 4151.58) rotate(180) scale(57.0631 57.0632)">
<stop stop-color="#4BF2F2"/>
<stop offset="1" stop-color="#133D3D" stop-opacity="0"/>
</radialGradient>
<radialGradient id="paint121_radial_2_315" cx="0" cy="0" r="1" gradientUnits="userSpaceOnUse" gradientTransform="translate(-1715.26 1972.95) rotate(180) scale(57.063 56.5297)">
<stop stop-color="#4BF2F2"/>
<stop offset="1" stop-color="#133D3D" stop-opacity="0"/>
</radialGradient>
<radialGradient id="paint122_radial_2_315" cx="0" cy="0" r="1" gradientUnits="userSpaceOnUse" gradientTransform="translate(-513.219 2586.04) rotate(180) scale(56.5298 57.0632)">
<stop stop-color="#4BF2F2"/>
<stop offset="1" stop-color="#133D3D" stop-opacity="0"/>
</radialGradient>
<radialGradient id="paint123_radial_2_315" cx="0" cy="0" r="1" gradientUnits="userSpaceOnUse" gradientTransform="translate(-9.18764 1837.47) rotate(180) scale(57.0631 57.0632)">
<stop stop-color="#4BF2F2"/>
<stop offset="1" stop-color="#133D3D" stop-opacity="0"/>
</radialGradient>
<radialGradient id="paint124_radial_2_315" cx="0" cy="0" r="1" gradientUnits="userSpaceOnUse" gradientTransform="translate(407.576 1927.4) rotate(180) scale(56.5298 57.0632)">
<stop stop-color="#4BF2F2"/>
<stop offset="1" stop-color="#133D3D" stop-opacity="0"/>
</radialGradient>
<radialGradient id="paint125_radial_2_315" cx="0" cy="0" r="1" gradientUnits="userSpaceOnUse" gradientTransform="translate(278.347 1134.56) rotate(180) scale(57.0632 57.0631)">
<stop stop-color="#4BF2F2"/>
<stop offset="1" stop-color="#133D3D" stop-opacity="0"/>
</radialGradient>
<radialGradient id="paint126_radial_2_315" cx="0" cy="0" r="1" gradientUnits="userSpaceOnUse" gradientTransform="translate(954.743 395.474) rotate(180) scale(56.5298 57.0631)">
<stop stop-color="#4BF2F2"/>
<stop offset="1" stop-color="#133D3D" stop-opacity="0"/>
</radialGradient>
<radialGradient id="paint127_radial_2_315" cx="0" cy="0" r="1" gradientUnits="userSpaceOnUse" gradientTransform="translate(1026.92 2630.41) rotate(180) scale(57.0631 57.0632)">
<stop stop-color="#4BF2F2"/>
<stop offset="1" stop-color="#133D3D" stop-opacity="0"/>
</radialGradient>
<radialGradient id="paint128_radial_2_315" cx="0" cy="0" r="1" gradientUnits="userSpaceOnUse" gradientTransform="translate(658.33 624.051) rotate(180) scale(57.0631 57.0631)">
<stop stop-color="#4BF2F2"/>
<stop offset="1" stop-color="#133D3D" stop-opacity="0"/>
</radialGradient>
<radialGradient id="paint129_radial_2_315" cx="0" cy="0" r="1" gradientUnits="userSpaceOnUse" gradientTransform="translate(719.086 5657.56) rotate(180) scale(57.0631 57.0632)">
<stop stop-color="#4BF2F2"/>
<stop offset="1" stop-color="#133D3D" stop-opacity="0"/>
</radialGradient>
<radialGradient id="paint130_radial_2_315" cx="0" cy="0" r="1" gradientUnits="userSpaceOnUse" gradientTransform="translate(706.425 3636.02) rotate(180) scale(57.0631 56.53)">
<stop stop-color="#4BF2F2"/>
<stop offset="1" stop-color="#133D3D" stop-opacity="0"/>
</radialGradient>
<radialGradient id="paint131_radial_2_315" cx="0" cy="0" r="1" gradientUnits="userSpaceOnUse" gradientTransform="translate(1182.69 5341.56) rotate(180) scale(57.0631 57.0632)">
<stop stop-color="#4BF2F2"/>
<stop offset="1" stop-color="#133D3D" stop-opacity="0"/>
</radialGradient>
<radialGradient id="paint132_radial_2_315" cx="0" cy="0" r="1" gradientUnits="userSpaceOnUse" gradientTransform="translate(1223.89 4676.58) rotate(180) scale(57.0631 57.0632)">
<stop stop-color="#4BF2F2"/>
<stop offset="1" stop-color="#133D3D" stop-opacity="0"/>
</radialGradient>
<radialGradient id="paint133_radial_2_315" cx="0" cy="0" r="1" gradientUnits="userSpaceOnUse" gradientTransform="translate(777.422 4180.64) rotate(180) scale(56.5298 56.53)">
<stop stop-color="#4BF2F2"/>
<stop offset="1" stop-color="#133D3D" stop-opacity="0"/>
</radialGradient>
<radialGradient id="paint134_radial_2_315" cx="0" cy="0" r="1" gradientUnits="userSpaceOnUse" gradientTransform="translate(1210.54 5508.06) rotate(180) scale(57.0631 57.0628)">
<stop stop-color="#4BF2F2"/>
<stop offset="1" stop-color="#133D3D" stop-opacity="0"/>
</radialGradient>
<radialGradient id="paint135_radial_2_315" cx="0" cy="0" r="1" gradientUnits="userSpaceOnUse" gradientTransform="translate(1110.48 3665.14) rotate(180) scale(57.0631 56.5297)">
<stop stop-color="#4BF2F2"/>
<stop offset="1" stop-color="#133D3D" stop-opacity="0"/>
</radialGradient>
<radialGradient id="paint136_radial_2_315" cx="0" cy="0" r="1" gradientUnits="userSpaceOnUse" gradientTransform="translate(1330.32 3176.93) rotate(180) scale(56.5298 57.0632)">
<stop stop-color="#4BF2F2"/>
<stop offset="1" stop-color="#133D3D" stop-opacity="0"/>
</radialGradient>
<radialGradient id="paint137_radial_2_315" cx="0" cy="0" r="1" gradientUnits="userSpaceOnUse" gradientTransform="translate(453.194 1381.54) rotate(180) scale(56.5298 57.0631)">
<stop stop-color="#4BF2F2"/>
<stop offset="1" stop-color="#133D3D" stop-opacity="0"/>
</radialGradient>
<radialGradient id="paint138_radial_2_315" cx="0" cy="0" r="1" gradientUnits="userSpaceOnUse" gradientTransform="translate(1438.56 1559.43) rotate(180) scale(57.0631 56.5298)">
<stop stop-color="#4BF2F2"/>
<stop offset="1" stop-color="#133D3D" stop-opacity="0"/>
</radialGradient>
<radialGradient id="paint139_radial_2_315" cx="0" cy="0" r="1" gradientUnits="userSpaceOnUse" gradientTransform="translate(1179.51 1619.59) rotate(180) scale(57.0631 56.5298)">
<stop stop-color="#4BF2F2"/>
<stop offset="1" stop-color="#133D3D" stop-opacity="0"/>
</radialGradient>
<radialGradient id="paint140_radial_2_315" cx="0" cy="0" r="1" gradientUnits="userSpaceOnUse" gradientTransform="translate(1097.82 2162.96) rotate(180) scale(57.0631 56.5297)">
<stop stop-color="#4BF2F2"/>
<stop offset="1" stop-color="#133D3D" stop-opacity="0"/>
</radialGradient>
<radialGradient id="paint141_radial_2_315" cx="0" cy="0" r="1" gradientUnits="userSpaceOnUse" gradientTransform="translate(930.667 2532.8) rotate(180) scale(57.0631 56.5298)">
<stop stop-color="#4BF2F2"/>
<stop offset="1" stop-color="#133D3D" stop-opacity="0"/>
</radialGradient>
<radialGradient id="paint142_radial_2_315" cx="0" cy="0" r="1" gradientUnits="userSpaceOnUse" gradientTransform="translate(549.441 3803.85) rotate(180) scale(56.5298 56.53)">
<stop stop-color="#4BF2F2"/>
<stop offset="1" stop-color="#133D3D" stop-opacity="0"/>
</radialGradient>
<radialGradient id="paint143_radial_2_315" cx="0" cy="0" r="1" gradientUnits="userSpaceOnUse" gradientTransform="translate(1389.15 2072.41) rotate(180) scale(57.0631 57.0632)">
<stop stop-color="#4BF2F2"/>
<stop offset="1" stop-color="#133D3D" stop-opacity="0"/>
</radialGradient>
<radialGradient id="paint144_radial_2_315" cx="0" cy="0" r="1" gradientUnits="userSpaceOnUse" gradientTransform="translate(1239.73 1250.38) rotate(180) scale(56.5298 56.5298)">
<stop stop-color="#4BF2F2"/>
<stop offset="1" stop-color="#133D3D" stop-opacity="0"/>
</radialGradient>
<radialGradient id="paint145_radial_2_315" cx="0" cy="0" r="1" gradientUnits="userSpaceOnUse" gradientTransform="translate(446.159 1668.38) rotate(180) scale(57.0632 57.063)">
<stop stop-color="#4BF2F2"/>
<stop offset="1" stop-color="#133D3D" stop-opacity="0"/>
</radialGradient>
<radialGradient id="paint146_radial_2_315" cx="0" cy="0" r="1" gradientUnits="userSpaceOnUse" gradientTransform="translate(487.999 2972.96) rotate(180) scale(56.5298 56.5298)">
<stop stop-color="#4BF2F2"/>
<stop offset="1" stop-color="#133D3D" stop-opacity="0"/>
</radialGradient>
<radialGradient id="paint147_radial_2_315" cx="0" cy="0" r="1" gradientUnits="userSpaceOnUse" gradientTransform="translate(1189.06 797.572) rotate(180) scale(56.5298 56.5298)">
<stop stop-color="#4BF2F2"/>
<stop offset="1" stop-color="#133D3D" stop-opacity="0"/>
</radialGradient>
<radialGradient id="paint148_radial_2_315" cx="0" cy="0" r="1" gradientUnits="userSpaceOnUse" gradientTransform="translate(204.922 3694.93) rotate(180) scale(56.5298 57.0632)">
<stop stop-color="#4BF2F2"/>
<stop offset="1" stop-color="#133D3D" stop-opacity="0"/>
</radialGradient>
<radialGradient id="paint149_radial_2_315" cx="0" cy="0" r="1" gradientUnits="userSpaceOnUse" gradientTransform="translate(-715.935 2736.77) rotate(180) scale(57.0632)">
<stop stop-color="#4BF2F2"/>
<stop offset="1" stop-color="#133D3D" stop-opacity="0"/>
</radialGradient>
<radialGradient id="paint150_radial_2_315" cx="0" cy="0" r="1" gradientUnits="userSpaceOnUse" gradientTransform="translate(-939.481 1858.34) rotate(180) scale(57.063 56.5298)">
<stop stop-color="#4BF2F2"/>
<stop offset="1" stop-color="#133D3D" stop-opacity="0"/>
</radialGradient>
<radialGradient id="paint151_radial_2_315" cx="0" cy="0" r="1" gradientUnits="userSpaceOnUse" gradientTransform="translate(-842.599 1827.35) rotate(180) scale(57.0632 57.063)">
<stop stop-color="#4BF2F2"/>
<stop offset="1" stop-color="#133D3D" stop-opacity="0"/>
</radialGradient>
<radialGradient id="paint152_radial_2_315" cx="0" cy="0" r="1" gradientUnits="userSpaceOnUse" gradientTransform="translate(-289.703 998.313) rotate(180) scale(57.063 56.5298)">
<stop stop-color="#4BF2F2"/>
<stop offset="1" stop-color="#133D3D" stop-opacity="0"/>
</radialGradient>
<radialGradient id="paint153_radial_2_315" cx="0" cy="0" r="1" gradientUnits="userSpaceOnUse" gradientTransform="translate(-128.222 4492.3) rotate(180) scale(57.0631 57.0632)">
<stop stop-color="#4BF2F2"/>
<stop offset="1" stop-color="#133D3D" stop-opacity="0"/>
</radialGradient>
<radialGradient id="paint154_radial_2_315" cx="0" cy="0" r="1" gradientUnits="userSpaceOnUse" gradientTransform="translate(580.465 4508.76) rotate(180) scale(56.5298 57.0632)">
<stop stop-color="#4BF2F2"/>
<stop offset="1" stop-color="#133D3D" stop-opacity="0"/>
</radialGradient>
<radialGradient id="paint155_radial_2_315" cx="0" cy="0" r="1" gradientUnits="userSpaceOnUse" gradientTransform="translate(-881.207 3180.68) rotate(180) scale(57.0632 57.063)">
<stop stop-color="#4BF2F2"/>
<stop offset="1" stop-color="#133D3D" stop-opacity="0"/>
</radialGradient>
<radialGradient id="paint156_radial_2_315" cx="0" cy="0" r="1" gradientUnits="userSpaceOnUse" gradientTransform="translate(-1599.41 1689.9) rotate(180) scale(57.0632)">
<stop stop-color="#4BF2F2"/>
<stop offset="1" stop-color="#133D3D" stop-opacity="0"/>
</radialGradient>
<radialGradient id="paint157_radial_2_315" cx="0" cy="0" r="1" gradientUnits="userSpaceOnUse" gradientTransform="translate(-1600.62 1468.26) rotate(180) scale(56.5298 57.0631)">
<stop stop-color="#4BF2F2"/>
<stop offset="1" stop-color="#133D3D" stop-opacity="0"/>
</radialGradient>
<radialGradient id="paint158_radial_2_315" cx="0" cy="0" r="1" gradientUnits="userSpaceOnUse" gradientTransform="translate(-655.126 2589.81) rotate(180) scale(57.0632 56.5298)">
<stop stop-color="#4BF2F2"/>
<stop offset="1" stop-color="#133D3D" stop-opacity="0"/>
</radialGradient>
<radialGradient id="paint159_radial_2_315" cx="0" cy="0" r="1" gradientUnits="userSpaceOnUse" gradientTransform="translate(-1090.85 3793.06) rotate(180) scale(57.063 56.53)">
<stop stop-color="#4BF2F2"/>
<stop offset="1" stop-color="#133D3D" stop-opacity="0"/>
</radialGradient>
<radialGradient id="paint160_radial_2_315" cx="0" cy="0" r="1" gradientUnits="userSpaceOnUse" gradientTransform="translate(-1586.1 3520.77) rotate(180) scale(57.0632)">
<stop stop-color="#4BF2F2"/>
<stop offset="1" stop-color="#133D3D" stop-opacity="0"/>
</radialGradient>
<radialGradient id="paint161_radial_2_315" cx="0" cy="0" r="1" gradientUnits="userSpaceOnUse" gradientTransform="translate(-651.365 3425.83) rotate(180) scale(57.063 57.0632)">
<stop stop-color="#4BF2F2"/>
<stop offset="1" stop-color="#133D3D" stop-opacity="0"/>
</radialGradient>
<radialGradient id="paint162_radial_2_315" cx="0" cy="0" r="1" gradientUnits="userSpaceOnUse" gradientTransform="translate(777.379 4777.25) rotate(180) scale(57.0631 57.0632)">
<stop stop-color="#4BF2F2"/>
<stop offset="1" stop-color="#133D3D" stop-opacity="0"/>
</radialGradient>
<radialGradient id="paint163_radial_2_315" cx="0" cy="0" r="1" gradientUnits="userSpaceOnUse" gradientTransform="translate(404.41 3132.58) rotate(180) scale(56.5298 57.0632)">
<stop stop-color="#4BF2F2"/>
<stop offset="1" stop-color="#133D3D" stop-opacity="0"/>
</radialGradient>
<radialGradient id="paint164_radial_2_315" cx="0" cy="0" r="1" gradientUnits="userSpaceOnUse" gradientTransform="translate(656.466 1884.94) rotate(180) scale(56.5298)">
<stop stop-color="#4BF2F2"/>
<stop offset="1" stop-color="#133D3D" stop-opacity="0"/>
</radialGradient>
<radialGradient id="paint165_radial_2_315" cx="0" cy="0" r="1" gradientUnits="userSpaceOnUse" gradientTransform="translate(1120.61 3375.79) rotate(180) scale(57.0631 57.0632)">
<stop stop-color="#4BF2F2"/>
<stop offset="1" stop-color="#133D3D" stop-opacity="0"/>
</radialGradient>
<radialGradient id="paint166_radial_2_315" cx="0" cy="0" r="1" gradientUnits="userSpaceOnUse" gradientTransform="translate(1414.51 3855.16) rotate(180) scale(57.0631 57.0628)">
<stop stop-color="#4BF2F2"/>
<stop offset="1" stop-color="#133D3D" stop-opacity="0"/>
</radialGradient>
<clipPath id="clip0_2_315">
<rect width="1385" height="928" fill="white" transform="matrix(-1 0 0 1 1385 0)"/>
</clipPath>
</defs>
</svg>
